<svg xmlns="http://www.w3.org/2000/svg" viewBox="0 0 14 14"><symbol id="0968ae36-fd75-46b7-aca4-751f66187ce3" viewBox="0 0 14 14"><path d="M8.44417 2.26114C8.58539 2.40244 8.71841 2.5536 8.84157 2.71133C8.8153 2.67847 8.78902 2.64396 8.76275 2.6111C9.03042 2.9545 9.25047 3.33239 9.41796 3.73329C9.40154 3.69222 9.38348 3.65114 9.36706 3.61171C9.53127 4.01097 9.64294 4.43158 9.69877 4.86041C9.69385 4.81605 9.68728 4.77333 9.68235 4.72897C9.7349 5.15616 9.73326 5.58664 9.67578 6.01218C9.68235 5.96946 9.68728 5.92839 9.69385 5.88567C9.65279 6.17813 9.58711 6.46566 9.49515 6.74662C9.47216 6.81891 9.44588 6.8912 9.41796 6.96185C9.40483 6.998 9.39005 7.03251 9.37527 7.06865C9.35556 7.11466 9.36377 7.09658 9.39662 7.01608C9.38841 7.03743 9.37855 7.05879 9.3687 7.07851C9.3063 7.21981 9.23733 7.35618 9.16179 7.49091C9.08625 7.62728 9.0025 7.75873 8.91383 7.88688C8.89084 7.91974 8.86785 7.95096 8.84486 7.98218C8.835 7.99532 8.82679 8.00682 8.81694 8.01997C8.76111 8.09391 8.89248 7.92139 8.835 7.99532C8.78574 8.05776 8.73483 8.11855 8.68392 8.17934C8.47537 8.42251 8.24054 8.64432 7.98765 8.84313C8.0205 8.81684 8.05498 8.79055 8.08782 8.76426C7.74461 9.03208 7.36692 9.25224 6.96624 9.41983C7.00729 9.4034 7.04834 9.38533 7.08776 9.3689C6.68871 9.5332 6.26832 9.64493 5.83972 9.70079C5.88406 9.69586 5.92676 9.68929 5.97109 9.68436C5.54413 9.73858 5.11389 9.7353 4.68857 9.67779C4.73127 9.68436 4.77232 9.68929 4.81502 9.69586C4.52272 9.65479 4.23534 9.58907 3.95453 9.49706C3.88228 9.47405 3.81002 9.44776 3.73941 9.41983C3.70329 9.40669 3.6688 9.3919 3.63267 9.37711C3.58669 9.3574 3.60476 9.36561 3.68522 9.39847C3.66387 9.39026 3.64253 9.3804 3.62282 9.37054C3.48159 9.30811 3.3453 9.2391 3.21064 9.16352C3.07434 9.08794 2.94297 9.00415 2.81488 8.91542C2.78204 8.89242 2.75084 8.86942 2.71964 8.84641C2.7065 8.83656 2.69501 8.82834 2.68187 8.81848C2.60797 8.76262 2.7804 8.89406 2.7065 8.83656C2.6441 8.78727 2.58334 8.73633 2.52258 8.6854C2.27954 8.47673 2.05785 8.24178 1.85915 7.98875C1.88543 8.02161 1.9117 8.05612 1.93797 8.08898C1.6703 7.74558 1.45026 7.36768 1.28276 6.96678C1.29918 7.00786 1.31724 7.04894 1.33366 7.08837C1.16945 6.68911 1.05778 6.26849 1.00195 5.83966C1.00688 5.88402 1.01344 5.92674 1.01837 5.97111C0.96418 5.54392 0.967464 5.11344 1.02494 4.6879C1.01837 4.73062 1.01344 4.77169 1.00688 4.81441C1.04793 4.52195 1.11362 4.23442 1.20558 3.95346C1.22857 3.88117 1.25484 3.80887 1.28276 3.73822C1.29589 3.70208 1.31067 3.66757 1.32545 3.63143C1.34516 3.58542 1.33695 3.60349 1.3041 3.684C1.31232 3.66264 1.32217 3.64128 1.33202 3.62157C1.39442 3.48027 1.46339 3.34389 1.53893 3.20917C1.61447 3.07279 1.69822 2.94135 1.7869 2.81319C1.80989 2.78033 1.83288 2.74912 1.85587 2.7179C1.86572 2.70475 1.87393 2.69325 1.88378 2.68011C1.93962 2.60617 1.80824 2.77869 1.86572 2.70475C1.91498 2.64232 1.96589 2.58153 2.0168 2.52073C2.22535 2.27757 2.46018 2.05576 2.71307 1.85695C2.68023 1.88324 2.64574 1.90953 2.6129 1.93581C2.95611 1.668 3.3338 1.44783 3.73449 1.28024C3.69343 1.29667 3.65238 1.31475 3.61297 1.33118C4.01201 1.16688 4.4324 1.05515 4.861 0.999286C4.81666 1.00421 4.77397 1.01079 4.72963 1.01572C5.15659 0.963139 5.58683 0.964782 6.01215 1.02229C5.96945 1.01572 5.9284 1.01079 5.8857 1.00421C6.13202 1.03872 6.3767 1.0913 6.61646 1.16195C6.73962 1.19809 6.86278 1.24081 6.98266 1.28682C7.01057 1.29832 7.04013 1.30982 7.06805 1.32132C7.14523 1.35254 6.94325 1.2671 7.05655 1.31803C7.1206 1.34597 7.183 1.37554 7.24376 1.40512C7.47366 1.51684 7.69371 1.64993 7.9039 1.79616C7.93018 1.81423 7.95481 1.8323 7.98108 1.85202C8.01064 1.87338 8.10753 1.94896 7.97452 1.84709C8.03035 1.89145 8.08618 1.93581 8.14037 1.98182C8.24711 2.07054 8.34728 2.1642 8.44417 2.26114C8.63466 2.45008 8.95324 2.44844 9.14044 2.25785C9.32929 2.06726 9.32765 1.75015 9.13716 1.5612C8.53285 0.959853 7.79552 0.512948 6.98594 0.248419C6.19607 -0.00953694 5.36021 -0.0555419 4.54078 0.0594705C2.88714 0.287852 1.39771 1.37061 0.622613 2.83948C0.235065 3.57228 0.0248704 4.39215 0.0018803 5.22188C-0.0211098 6.05654 0.167737 6.87806 0.512589 7.6355C1.20558 9.14873 2.66545 10.2791 4.29282 10.5995C5.10404 10.7589 5.94318 10.7359 6.74455 10.524C7.56562 10.3054 8.31772 9.88317 8.94995 9.31961C10.1783 8.22042 10.8401 6.53302 10.6873 4.89163C10.5708 3.63471 10.0305 2.45666 9.1388 1.55956C8.94995 1.36897 8.62973 1.3739 8.44253 1.56285C8.2504 1.75508 8.25532 2.07054 8.44417 2.26114Z" transform="translate(14) rotate(90)"></path><path d="M9.75791 10.4533C10.2489 10.9446 10.7399 11.4342 11.2293 11.9255C11.8484 12.5432 12.4658 13.1627 13.0849 13.7804C13.1112 13.8067 13.1375 13.833 13.1637 13.8593C13.3526 14.0483 13.6728 14.0466 13.86 13.856C14.0488 13.6638 14.0456 13.3483 13.8567 13.1594C13.3657 12.6681 12.8747 12.1785 12.3853 11.6872C11.7663 11.0694 11.1488 10.45 10.5297 9.83223C10.5034 9.80594 10.4772 9.77966 10.4509 9.75337C10.262 9.56442 9.94183 9.56606 9.75462 9.75665C9.56577 9.94889 9.56742 10.2644 9.75791 10.4533Z" transform="translate(14) rotate(90)"></path></symbol><use href="#0968ae36-fd75-46b7-aca4-751f66187ce3"></use></svg>