<svg xmlns="http://www.w3.org/2000/svg" viewBox="0 0 45.33 51.19"><symbol id="1b52d905-3f63-4d72-a0d6-50b369692d6c" viewBox="0 0 45.33 51.19"><title>rw-icon-palm</title><g id="Layer_2" data-name="Layer 2"><g id="rw-icon-palm"><path d="M28.44,51.19a.76.76,0,0,1-.7-.71s-.08-.11-.12-.11A21.65,21.65,0,0,1,22,49.27q-3-.75-6-1.44a7.93,7.93,0,0,0-2.33-.23,1.2,1.2,0,0,0-.48.14,4.72,4.72,0,0,1-1.36.59,1.12,1.12,0,0,1-1.26-.52,2.41,2.41,0,0,1-.48-1.07,1.48,1.48,0,0,1,.14-.74,2.51,2.51,0,0,0,.07-.71c-.44.15-.6-.13-.77-.37a3.67,3.67,0,0,1-.61-1.69,23.32,23.32,0,0,0-.73-3.61A.81.81,0,0,0,8,39.31l-1-.88A.22.22,0,0,1,7,38.24c.09-.17,0-.27-.11-.36a.62.62,0,0,1-.23-.51c0-.51-.11-1-.18-1.52a.38.38,0,0,1,.2-.43l.24-.11c-.34-1.11-.3-2.31-1-3.34a2.86,2.86,0,0,1-.12.35c-.1.2-.26.24-.39.06a3.7,3.7,0,0,1-.33-.66s0-.09,0-.12a1,1,0,0,0,.28-.69,6.43,6.43,0,0,0-.61-2.86,8,8,0,0,0-1.16-1.83c-.22.26-.27.27-.53,0L3,26.16a.48.48,0,0,1-.21-.63.25.25,0,0,0-.13-.35.27.27,0,0,1-.13-.39,1.31,1.31,0,0,0,.06-.27c0-.19.1-.31.31-.28s.14-.11.16-.21A3.28,3.28,0,0,0,3,22.64c-.36-1.43-.73-2.85-1.1-4.27A.29.29,0,0,1,2,18a.24.24,0,0,0,.1-.34c-.26-.78-.51-1.56-.77-2.36,0,.61,0,1.21,0,1.82s0,.53-.19.83c-.29-.1-.59-.19-.88-.31-.06,0-.1-.14-.12-.22a7.55,7.55,0,0,1,.05-2.92c.11-.58.19-1.17.29-1.75,0-.16-.07-.23-.17-.32C0,12.17,0,12.17.15,11.81c.06-.18.13-.36.2-.56l.48.27L1.12,11l.4.27c.12-.23.25-.45.36-.67a.29.29,0,0,0,0-.18.66.66,0,0,1,.24-.74,3.92,3.92,0,0,0,.45-.53l-.16-.17a.46.46,0,0,1,.09-.68l.25-.17c.32-.25.47-.22.7.17l.4-.56-.1-.13c-.13-.21-.11-.34.08-.48a3.88,3.88,0,0,0,.31-.26c.2-.17.23-.17.48,0,.25-.3.5-.6.76-.89a.17.17,0,0,1,.06-.06A23.5,23.5,0,0,1,9.29,3.23l1.4-.68a.56.56,0,0,0,.24-.24.57.57,0,0,1,.39-.3,2,2,0,0,0,.77-.3.74.74,0,0,1,.51,0A.26.26,0,0,0,13,1.53a1.07,1.07,0,0,1,1-.61c.2,0,.41-.09.61-.14a1.77,1.77,0,0,0,.65-.31,2.26,2.26,0,0,1,.63-.23,9.18,9.18,0,0,1,1-.23,3.47,3.47,0,0,1,.72,0,.14.14,0,0,1,.11,0c.35.36,1,.47,1,1.1A3.47,3.47,0,0,1,22.05.07,9.51,9.51,0,0,1,23.78.5a3.21,3.21,0,0,1,2.13,2c.05.14.12.28.2.45l.11-.19a2.38,2.38,0,0,1,2.26-1.19,4.27,4.27,0,0,1,2.41.8,3.39,3.39,0,0,1,1.18,1.56c.18.49.35,1,.52,1.45a7.92,7.92,0,0,1,1-.41,2.35,2.35,0,0,1,1.82.37,5,5,0,0,1,2.34,3.45c.11.53.23,1.07.34,1.6a.19.19,0,0,0,.12.13c0-.18,0-.37.06-.55a.71.71,0,0,1,.82-.69,1,1,0,0,1,1,.88.65.65,0,0,0,.34.61,7.37,7.37,0,0,1,1.36,1.68A18.07,18.07,0,0,1,44.46,19c.31,1.43.58,2.87.87,4.31v.08s0,0,0,0c-.47.07-.46.06-.64-.39a18.2,18.2,0,0,1-.86-3.34A10.15,10.15,0,0,0,42.92,17c-.42-.8-.73-1.65-1.15-2.45a11.15,11.15,0,0,0-.9-1.37.55.55,0,0,0-.15-.16l.34,1.86c.08,0,.17-.06.23,0a5.21,5.21,0,0,1,.55.36s0,.12,0,.18c-.16,1.51-.35,3-.48,4.53-.08.85-.08,1.72-.1,2.58,0,0,.06.11.1.17a.88.88,0,0,1,.14.23,3.27,3.27,0,0,1,.2,2.18c-.09.29,0,.62-.2.9s-.44.72-.94.69c0,0-.11.1-.11.16-.07.58-.12,1.16-.18,1.74-.13,1.13-.23,2.26-.4,3.37-.21,1.38-.49,2.75-.74,4.16.51.38.42,1,.35,1.55,0,.32-.13.63-.19.94,0,.15-.09.24-.27.23l.06.44c-.39,0-.76.09-1.13.11a.46.46,0,0,0-.43.24,1.94,1.94,0,0,0-.31.82.57.57,0,0,1-.43.6.19.19,0,0,0-.1.1,12.89,12.89,0,0,1-1.8,2.29.46.46,0,0,1-.44.62c-.24,0-.34.1-.48.25.18.08.35.14.51.22A1.37,1.37,0,0,1,35.25,46c-.09.46-.09.94-.19,1.39a1.5,1.5,0,0,1-.93,1.1,5.12,5.12,0,0,1-1.84.48.7.7,0,0,0-.41.16c-.35.29-.68.6-1,.9a2.34,2.34,0,0,0-.22.23,2.63,2.63,0,0,1-1.72.89s-.07,0-.1,0ZM19.11,3.72c0,.2,0,.37,0,.54,0,1.63.08,3.26.13,4.89,0,1,.07,2.06.09,3.1a.59.59,0,0,0,.2.44A1.85,1.85,0,0,1,20.17,14,14,14,0,0,1,20,17.14a1.62,1.62,0,0,1-.52,1.12s0,.1,0,.15l-.09,1.26a2.65,2.65,0,0,1-.77,1.51,23.13,23.13,0,0,1-3.35,3.14c-.73.57-1.5,1.1-2.27,1.59a.93.93,0,0,1-1.29-.13A7.83,7.83,0,0,1,10.3,24a31.75,31.75,0,0,1-2.22-4.49q-1-2.41-2.08-4.81a16.56,16.56,0,0,0-1.65-2.93c-.16-.22-.34-.42-.55-.67a.89.89,0,0,1,0,.13c.24,1.19.43,2.38.72,3.56.64,2.65,1.47,5.25,2.35,7.84a76.72,76.72,0,0,0,3,7.7c.1.24.2.44.51.32,0,0,.06,0,.09,0,.74,0,.91.72,1.31,1.13.06.51.44.94.28,1.49.18.48.11,1.05.5,1.46a1,1,0,0,1,.1.17c.06.15.12.29-.06.42,0,0,0,.11,0,.17.13.59.27,1.19.41,1.78a.35.35,0,0,0,.16.2,1.22,1.22,0,0,1,.34,1.1c0,.06-.1.09-.16.14l.18.72c.19.7.39,1.4.58,2.1a4.19,4.19,0,0,0,.67,1.64c.14.18.24.24.44.14a.56.56,0,0,1,.68.16c.15.15.28.32.43.49l-.36.19a1.78,1.78,0,0,0,.31.08c.7.12,1.42.22,2.12.35a.51.51,0,0,0,.52-.13c.29-.31.62-.24,1-.15a.22.22,0,0,1,.17.31l-.07.19c.52,0,1,.06,1.52.11a.45.45,0,0,0,.47-.2.43.43,0,0,1,.6-.17,1.33,1.33,0,0,1,.34.16c.06,0,.09.11.17.22.46,0,1-.07,1.51-.07a.53.53,0,0,0,.52-.28c.06-.11.13-.2.28-.17l.8.12.06,0-.08.21c.62-.1,1.19-.21,1.78-.29a1.13,1.13,0,0,0,.91-.6.36.36,0,0,1,.22-.13,1.71,1.71,0,0,1,.45,0c.06,0,.12.08.22.14.58-.27,1.27-.49,1.54-1.24l.05-.07.23-.2c-.47-.33-.93-.68-1.42-1s-.59-.42-.19-1a.54.54,0,0,1,.82-.09c.3.24.58.51.89.73a1.2,1.2,0,0,1,.5.85.26.26,0,0,1-.07.21,3.47,3.47,0,0,1-.38.29l0,.06a.64.64,0,0,0,.27-.11A10.78,10.78,0,0,0,33.74,40a.91.91,0,0,1-.72-.65c-.12-.32-.26-.63-.4-1a.62.62,0,0,1,.05-.67,9.57,9.57,0,0,1,.71-.75,4.49,4.49,0,0,0,.82,2.19,10.27,10.27,0,0,0,1-3.17c.09-.7.15-1.4.26-2.1s.46-1.16,1.32-1.31c0,0,.11-.1.12-.17.06-.34.11-.69.15-1,.18-1.49.37-3,.54-4.45.15-1.33.27-2.67.4-4s.26-2.79.37-4.19.18-2.76.25-4.14a3.73,3.73,0,0,0-.2-1.72,2.37,2.37,0,0,0-1.06-1.25.6.6,0,0,0-.62.06c-.08,0-.08.22-.11.34a.48.48,0,0,0,0,.12,1.6,1.6,0,0,0,0,.92c.06.14-.05.24-.19.28s-.32.08-.51.12c.08.17.14.32.22.46a2,2,0,0,1,.23,1.24.33.33,0,0,1-.34.33.55.55,0,0,1-.6-.41c-.19-.56-.37-1.13-.55-1.7,0-.12-.09-.18-.21-.2A4.67,4.67,0,0,1,34,13c-.22-.08-.34-.26-.27-.44a1.58,1.58,0,0,0,.1-.86c0-.16.09-.2.2-.26s.18,0,.23.1.07.06.1.1c-.06-.56-.12-1.09-.18-1.63a1.59,1.59,0,0,1,.44-1.19c.09-.11.18-.12.28,0a1.36,1.36,0,0,1,.16.65,8.56,8.56,0,0,0,.33,2.25c.11.34.11.35.51.31,0-.13,0-.26,0-.39a1.37,1.37,0,0,1,0-.29c0-.11,0-.21,0-.31,0-.59,0-1.18,0-1.78a2.35,2.35,0,0,0-.68-1.78,14,14,0,0,0-1.48-1.19.86.86,0,0,0-1.26.47,1.07,1.07,0,0,1,.52.57.37.37,0,0,1-.19.54l-.72.33c-.27.12-.32.26-.11.47a6.25,6.25,0,0,0,.69.56.62.62,0,0,1,.21.88c-.06.11-.14.21-.21.32a.18.18,0,0,1-.27.08l-.6-.25a1.55,1.55,0,0,1,0,.22c-.06,1-.11,1.93-.18,2.9s-.19,2-.29,3.06-.2,2-.31,3-.25,2.07-.37,3.11c0,.29-.18.45-.4.44s-.36-.19-.32-.48c.09-.84.2-1.67.29-2.51q.19-1.66.36-3.33c.12-1.17.23-2.34.32-3.51s.14-2.13.21-3.2a1,1,0,0,0,0-.46,6.54,6.54,0,0,0-.5-.71l-.23.08c-.18.06-.37.13-.55.17-.33.06-.5-.11-.45-.43a3.43,3.43,0,0,0,.06-.34.5.5,0,0,1,.44-.55s0,0,0,0a5.8,5.8,0,0,0-.36-.59,1.13,1.13,0,0,1-.21-1c.09-.32.13-.66.19-1l.19,0c.48.09.49.11.48.6a.78.78,0,0,0,.08.4c.2.35.43.69.66,1,0,.06.1.08.15.12a.64.64,0,0,0,.06-.18c0-.43-.06-.86-.1-1.28A2.28,2.28,0,0,0,29.91,4a5.11,5.11,0,0,0-3.12-.57.18.18,0,0,0-.13.08c-.09.23-.17.46-.26.72a.67.67,0,0,1,.94.28c.18.27.15.43-.17.73s-.42.39-.65.6l.17.13c.31.22.63.44.95.64a.54.54,0,0,1,.28.58c-.08.59-.27.7-.81.45l-.87-.42v.29c0,1.26,0,2.52,0,3.78s-.11,2.76-.17,4.14c0,.84-.09,1.67-.12,2.5,0,.54,0,1.08-.05,1.62a.89.89,0,0,0,.14.61.34.34,0,0,1-.13.47.42.42,0,0,1-.64-.26,2.92,2.92,0,0,1-.09-.78c0-1.15.08-2.29.12-3.44.08-1.72.19-3.44.23-5.16,0-1.38,0-2.75,0-4.13,0-.23-.09-.27-.31-.2-.38.13-.77.23-1.16.33-.21.06-.33,0-.37-.25a4.68,4.68,0,0,0-.1-.54c0-.12,0-.17.11-.22l.7-.36c-.3-.37-.58-.73-.86-1.09a.34.34,0,0,1-.1-.22c0-.36.09-.72.13-1.07.4,0,.75,0,.92.43a1.37,1.37,0,0,0,.18.24c.19.23.38.45.56.68l.09,0C25.1,4,25,3.5,24.75,3a1.57,1.57,0,0,0-.9-.83,8.19,8.19,0,0,0-2-.44,5,5,0,0,0-2.63.36.23.23,0,0,0-.16.32c.34-.06.66-.14,1-.18a.57.57,0,0,1,.72.55,4.53,4.53,0,0,0,.07.74c.17.67.35,1.33.56,2a.44.44,0,0,1-.05.47,1.65,1.65,0,0,1-.29.3.4.4,0,0,1-.68-.17,4.57,4.57,0,0,1-.3-.88c-.12-.53-.22-1.07-.32-1.61ZM3.37,9.84l0,.05A4.46,4.46,0,0,1,5,11.41l.56-.63.08,0s0,.13,0,.16a3.76,3.76,0,0,1-.34.35c-.21.21-.21.22,0,.44l.6-.65.09.1-.59.69L6.54,14l.14-.11A32.07,32.07,0,0,1,10,11.38,44.45,44.45,0,0,1,18.2,6.92c.13-.06.21-.12.2-.28s0-.61,0-.91,0-.87-.05-1.33l-1.13.37,0-.06s.08-.12.13-.14c.27-.1.54-.18.81-.27s.27-.11.17-.39l-1.23.4c0-.08,0-.16,0-.16l1.25-.43c0-.48-.07-1-.11-1.55A.67.67,0,0,0,18.16,2a1.74,1.74,0,0,1-1,.16.29.29,0,0,1-.28-.24,1.33,1.33,0,0,0-.19-.4.17.17,0,0,0-.14-.08l-.74.16c.05.15.1.27.14.39a.41.41,0,0,1-.08.52.65.65,0,0,1-.61.16.78.78,0,0,1-.66-.58s-.1-.13-.13-.12l-1.07.32.26.47a.38.38,0,0,1-.06.49.74.74,0,0,1-1,.13c-.18-.14-.35-.32-.53-.47s-.11-.09-.15-.07l-1.08.45.24.21.51.56a.28.28,0,0,1,0,.37.8.8,0,0,1-1.18.12l-.62-.59a.19.19,0,0,0-.26,0l-.74.42c.18.19.36.39.53.59a.56.56,0,0,1,.17.52.75.75,0,0,1-1.11.28c-.23-.23-.48-.44-.73-.67l-.91.68A2.27,2.27,0,0,1,7,6c.16.18.32.35.46.53a.24.24,0,0,1,0,.18.72.72,0,0,1-1,.38l-.66-.52-.71.7c.16.3.32.55.44.83a.41.41,0,0,1-.12.33.62.62,0,0,1-.78,0l-.3-.24-.19.26c-.21.27-.45.55-.13.9,0,0,0,.06,0,.09a.3.3,0,0,1-.28.39C3.67,9.83,3.52,9.83,3.37,9.84Zm6.87,12.59.28-.19a48.83,48.83,0,0,1,8.26-4.48.7.7,0,0,0,.47-.56A12.55,12.55,0,0,0,19.44,14a1,1,0,0,0-.24-.62c-.68-.73-.88-.93-1.73-.55-1.11.5-2.22,1-3.32,1.51A37.6,37.6,0,0,0,9.59,16.9c-.48.31-.93.65-1.39,1A36.13,36.13,0,0,0,10.24,22.43ZM9,33.21c0-.19-.08-.32-.11-.45a1.62,1.62,0,0,1,.4-1.68s0-.14,0-.19a83.37,83.37,0,0,1-3.48-9c-.75-2.3-1.48-4.62-2.05-7C3.55,14,3.37,13,3.16,12a1.3,1.3,0,0,0-.22,0l-.27,0a.77.77,0,0,0-.72.76,8.48,8.48,0,0,0,.43,3.53c1.41,4.27,2.78,8.55,4.2,12.82.91,2.76,1.87,5.52,2.82,8.27a23.1,23.1,0,0,1,1,2.9.24.24,0,0,0,0,.08c0-.05.05-.07,0-.08-.15-.82-.31-1.65-.48-2.47a.31.31,0,0,0-.11-.21.49.49,0,0,1-.25-.42c0-.18,0-.35,0-.53a.07.07,0,0,1,0-.06l.17,0c-.08-.39-.16-.77-.21-1.15a.34.34,0,0,0-.27-.32.83.83,0,0,1-.6-.44c-.09-.23-.18-.46-.25-.7a1.32,1.32,0,0,1,0-.92ZM38.82,34a2.32,2.32,0,0,0,.06-.27c.15-1,.31-2,.44-3s.25-2.27.37-3.4c.1-1,.19-1.94.28-2.91s.21-1.91.27-2.87c.08-1.22.15-2.44.18-3.67a17.27,17.27,0,0,0-.3-4.12A4.06,4.06,0,0,0,39.37,12a.63.63,0,0,0-.75-.17,3.4,3.4,0,0,1,.7,1.85,11.69,11.69,0,0,1,0,1.45c-.05,1.08-.11,2.16-.19,3.24s-.16,2.05-.25,3.07-.17,1.88-.27,2.82-.21,2.07-.33,3.1-.23,2.07-.36,3.1c-.1.77-.2,1.53-.31,2.31A2,2,0,0,1,38.82,34ZM9,16.33l4.42-2.48c-.11-.45-.11-.45,0-.51l.16.47.25-.12q0-.15-.09-.27c0-.09-.09-.21.1-.2l.13.37c.19,0,.23-.09.17-.26-.33-.89-.65-1.78-1-2.66l-.15-.36-.14.07c-.52.34-1,.67-1.55,1-1,.66-1.92,1.33-2.89,2a.3.3,0,0,0-.14.39,2,2,0,0,1,.08.35c0,.05,0,.1-.05.15s-.08-.07-.09-.11-.08-.32-.12-.49a.28.28,0,0,0-.2.41.58.58,0,0,1,0,.18.88.88,0,0,1-.1.18L7.76,14H7.7a.67.67,0,0,0,0,.24c.15.58.31,1.15.47,1.73.07.28.16.56.24.85h.07a.52.52,0,0,0,0-.17c-.06-.23-.13-.45-.19-.68,0,0,0-.11.05-.16H8.4l.25.83c.2-.07.27-.18.19-.37a5.7,5.7,0,0,1-.16-.55C8.79,15.7,8.79,15.7,9,16.33Zm9.46-8.74A44.05,44.05,0,0,0,13.7,9.92l1.19,3.25c.77-.33,1.52-.68,2.29-1A1.72,1.72,0,0,1,18.65,12ZM11.86,25l.07-.06c-.11-.24-.23-.48-.33-.73,0,0,0-.08,0-.13s.11,0,.13.07.1.23.16.35a3.33,3.33,0,0,1,.26.58c.06.27.17.36.43.23a1.87,1.87,0,0,0,.31-.17l2.35-1.75a.34.34,0,0,0,.16-.39,3.41,3.41,0,0,1-.05-.55c0-.05.06-.1.09-.14l.05,0,.07.73c.17-.09.3-.17.25-.38a1.67,1.67,0,0,1,0-.32s.06-.08.08-.12l0,0,.07.43a.47.47,0,0,0,.29-.54c0-.26-.05-.54-.09-.8-.08-.49-.17-1-.26-1.47-.3.12-.3.12-.26.38s0,.27.05.4a.35.35,0,0,1-.06.14h-.06l-.12-.66c-.23,0-.28.15-.23.34a1.17,1.17,0,0,1,0,.26s-.05.08-.07.12-.07-.07-.08-.11-.05-.27-.08-.46l-4.33,2.62c.17.4.29.77.47,1.1S11.64,24.67,11.86,25ZM28.41,47.13a2.33,2.33,0,0,0-.9,1.46.29.29,0,0,1-.11.2,3,3,0,0,1-1.8.27c-.78-.16-1.54-.36-2.3-.55l-5.75-1.37a12.93,12.93,0,0,0-3.82-.44c-.49,0-1,0-1.25.61l.32-.18a1.41,1.41,0,0,1,.89-.26c.72.06,1.45.08,2.16.2,1.94.32,3.84.83,5.75,1.33a42.15,42.15,0,0,0,4.59,1.14c.51.07,1,.09,1.55.13A8.28,8.28,0,0,1,28.41,47.13ZM18.7,18.56c-.69.32-1.35.63-2,1a.23.23,0,0,0-.06.19c.05.3.11.6.16.9s.13.78.21,1.24c.41-.46.78-.9,1.17-1.31A2.67,2.67,0,0,0,18.7,18.56Zm9.78,31a2.28,2.28,0,0,0,.49-.08c.34-.15.7-.3.79-.73l.18-.94a2.88,2.88,0,0,1,1-2c.22-.16.21-.32.08-.53A5.57,5.57,0,0,0,28.48,49.6ZM35,6.28c.17.15.35.29.51.44a3.06,3.06,0,0,1,1.07,1.7,12,12,0,0,1,.12,1.47c0,.33,0,.67,0,1l.77-.05a.78.78,0,0,0,0-.21c-.14-.66-.27-1.32-.42-2a4.36,4.36,0,0,0-1.52-2.41C35.24,6.05,35.21,6.05,35,6.28ZM36.44,35c0-.21.06-.4.09-.59a.36.36,0,0,1,.31-.32.31.31,0,0,1,.36.2.81.81,0,0,1,0,.35,5,5,0,0,1-.07.5,1.39,1.39,0,0,0,1-.72.35.35,0,0,0,0-.2,1.32,1.32,0,0,0-1.45-.84.42.42,0,0,0-.39.31,6,6,0,0,0-.16.71C36.06,34.68,36.1,34.75,36.44,35ZM13.06,44.81h-.38c-.14,0-.18,0-.25.15a1.88,1.88,0,0,1-.35.45c-.29.25-.59.47-.88.71,0,0-.13.09-.13.14a2.78,2.78,0,0,0,.1,1A3.52,3.52,0,0,0,13.06,44.81Zm-1.24-.15c-.39-.29-.46-.54-.32-.86a.4.4,0,0,0,0-.24c-.18-.5-.36-1-.56-1.5-.1-.27-.23-.52-.32-.72l.4,4Zm2.54,0a2.46,2.46,0,0,0,1.17.75c.5.13,1,.2,1.54.3a.23.23,0,0,0,.12,0l.65-.43-.93-.15A5,5,0,0,1,15,44.57a.22.22,0,0,0-.16,0ZM9.81,33.19c.22-.12.43-.17.49-.44a.45.45,0,0,1,.33-.2c.32,0,.46-.22.34-.52a2.71,2.71,0,0,0-.23-.41.69.69,0,0,0-.28-.2A.83.83,0,0,0,9.6,32,2.26,2.26,0,0,0,9.81,33.19ZM32.31,6.81C32,5.9,31.7,5,31.36,4.12a2.76,2.76,0,0,0-1.83-1.66.21.21,0,0,0-.19,0,2.44,2.44,0,0,0-.29.33l.25.07a3.24,3.24,0,0,1,2.48,3c0,.36.07.73.1,1.11ZM13.17,41.05c-.21-.87-.42-1.71-.64-2.55a.2.2,0,0,0-.11-.13,4.44,4.44,0,0,0-.44-.15c.21.93.42,1.81.63,2.69a.14.14,0,0,0,.12.09C12.86,41,13,41,13.17,41.05Zm12.31,5,0,.07,2.31-.33a.42.42,0,0,0,.38-.55l-2.4.31a.28.28,0,0,0-.13.09C25.6,45.75,25.54,45.9,25.48,46Zm-14.72-8.1c0,.06,0,.11,0,.16.16.77.31,1.53.47,2.29a.47.47,0,0,0,.58.44c-.18-.8-.35-1.59-.53-2.39C11.2,38,11.21,38,10.76,37.93Zm24.16,1.45c-.18.33-.33.66-.53,1a1.61,1.61,0,0,0-.17,1.24A5.2,5.2,0,0,0,35.28,40a.16.16,0,0,0,0-.15C35.15,39.7,35,39.55,34.92,39.38Zm1.73-1.44c-.1.4-.2.81-.31,1.21s-.09.37.29.6l.71-1.49ZM21.23,45.66c-.57,0-1.13-.08-1.68-.17-.38-.07-.57.17-.85.37l.23,0c.57,0,1.14,0,1.71.12A.49.49,0,0,0,21.23,45.66Zm3.21,0H22.73c-.32,0-.41.07-.51.43h1.61c.5,0,.38.09.61-.43ZM14.16,43.61a.3.3,0,0,0,0-.08,2.72,2.72,0,0,1-.54-1.12c-.14-.43-.14-.43-.61-.35l0,0a.83.83,0,0,0,0,.13c.17.39.33.78.52,1.16s.21.4.65.26Zm-2.39-1.53s0,0,0,0c.2.56.4,1.11.61,1.66,0,0,.05.09.09.09l.47,0-.11-.22c-.18-.43-.38-.86-.55-1.29s-.11-.34-.48-.32Zm-.32-6.61.3,1.56a.16.16,0,0,0,.09.09l.4.11-.42-1.76Zm22.2,7.71-.22.18L32,44.72c-.05.05-.05.16-.07.25L32,45c.43-.35.86-.69,1.28-1.05.14-.13.25-.29.38-.43A.21.21,0,0,0,33.65,43.18Zm3.28-6.8c0,.12,0,.34,0,.4a2.52,2.52,0,0,0,.67.29s.12,0,.14-.07c.09-.26.17-.52.24-.75Zm-26.63-1a.56.56,0,0,0,0,.13c.06.33.14.66.17,1s.14.38.4.39l.11,0c-.09-.47-.17-.91-.26-1.35,0-.06-.08-.11-.13-.13A2.18,2.18,0,0,0,10.3,35.36Zm20.48,8.92-1.23.52a.3.3,0,0,0-.12.13,3.3,3.3,0,0,0-.1.42l1.27-.64A.31.31,0,0,0,30.78,44.28ZM29,2.33a2,2,0,0,0-1.73.28l1.43.12Zm6.7,34.73a5.23,5.23,0,0,1-.17.63c-.17.35,0,.65.14,1,.09-.38.15-.72.25-1A.48.48,0,0,0,35.74,37.06ZM21.8,1l2.34.49A6.32,6.32,0,0,0,21.86.76ZM33.34,42.09,32,43.44s0,.12-.06.18l.06,0c.4-.35.79-.71,1.2-1C33.38,42.45,33.47,42.29,33.34,42.09ZM2.34,11.2l-.22.59,1-.16c0-.13,0-.19-.18-.22A2.81,2.81,0,0,1,2.34,11.2ZM21.52.74A3.06,3.06,0,0,0,20,1.05c.43,0,.88-.07,1.32-.07C21.48,1,21.53.93,21.52.74ZM11.58,34.42l-.18-.76c-.27.12-.26.12-.2.52C11.24,34.41,11.36,34.46,11.58,34.42ZM7.31,15.82h0L7,14.59l-.18.17ZM35,5.87l-.86-.27,0,.06.6.44L34.82,6Zm3.75,5.48-.63-.16C38.28,11.5,38.48,11.54,38.73,11.35ZM6.33,30.7l-.21-.62A.47.47,0,0,0,6.33,30.7ZM35.52,41.16c.34-.33.43-.49.34-.61Zm-.65.87,0,0-.44.5.06,0Z"></path><path d="M36.73,16.81a.6.6,0,0,1,.31.73c-.14.56-.34,1.11-.43,1.67-.12.79-.18,1.58-.26,2.38,0,.05,0,.1,0,.17l-.32,0c.44.37.32.79.21,1.22-.2.8-.43,1.6-.6,2.41a4.57,4.57,0,0,0,0,1.11,2,2,0,0,1-.16,1A9.24,9.24,0,0,0,34.73,30c0,.28,0,.57-.11.85a.87.87,0,0,1-.25.38A3.21,3.21,0,0,1,34,30a8.23,8.23,0,0,1,.7-3,1.53,1.53,0,0,1,.32-.5.53.53,0,0,0,.13-.55,5.62,5.62,0,0,1,.15-3.07,5.56,5.56,0,0,1,.6-1,.29.29,0,0,0,0-.27c-.09-.36-.19-.73-.26-1.09A2.69,2.69,0,0,1,35.75,19c.23-.61.47-1.21.73-1.81A1.67,1.67,0,0,1,36.73,16.81Z"></path><path d="M6,16.44c1.33.69,2.32,3.31,1.68,4.27a1.76,1.76,0,0,1,.52.35A6.83,6.83,0,0,1,9.54,23.4a2.22,2.22,0,0,1,.07,1.17c0,.1-.12.18-.18.27s-.22-.11-.26-.19a3.65,3.65,0,0,1-.23-.73,4.49,4.49,0,0,0-.46-1.3,12.22,12.22,0,0,1-1.14-2.46,17.35,17.35,0,0,0-.56-1.77,6.27,6.27,0,0,0-.62-.93A1.12,1.12,0,0,1,6,16.44Z"></path><path d="M21.89,14.57c-.1.76-.19,1.5-.3,2.22a.85.85,0,0,1-.93.73c-.19,0-.27-.09-.25-.28,0-.57.08-1.14.13-1.72,0-.38.1-.77.16-1.16a.52.52,0,0,1,.35-.46.59.59,0,0,1,.66.13A1.56,1.56,0,0,1,21.89,14.57Z"></path><path d="M17.1,25.1a4.72,4.72,0,0,1-.56-.24.25.25,0,0,1-.05-.43,3.31,3.31,0,0,1,.45-.39A3.51,3.51,0,0,0,18,23a4,4,0,0,1,.4-.52.47.47,0,0,1,.33-.14.59.59,0,0,1,.44.92,7.69,7.69,0,0,1-1.6,1.67A2.1,2.1,0,0,1,17.1,25.1Z"></path><path d="M27.3,39.56l-2.19-.2c-.27,0-.54,0-.81,0a3.75,3.75,0,0,1-.52-.15l0-.09a3.19,3.19,0,0,1,.4-.33,2.41,2.41,0,0,1,1.54-.21L27,38.7l.16,0c.33.1.39.21.29.53Z"></path><path d="M32.78,31.57c0,.19,0,.37,0,.55,0,.49,0,1,0,1.46,0,.25,0,.5.06.75a.33.33,0,0,1-.12.24c-.14.13-.31.24-.46.36a1.73,1.73,0,0,1-.42-1.2,5.94,5.94,0,0,1-.06-.94A1.47,1.47,0,0,1,32.78,31.57Z"></path><path d="M9.36,25a.44.44,0,0,1,.55.08,4.64,4.64,0,0,1,1.81,3,4.63,4.63,0,0,1,0,.74.23.23,0,0,1-.13.14.23.23,0,0,1-.16-.11,3.11,3.11,0,0,1-.28-.65,6.77,6.77,0,0,0-1.2-2.38Z"></path><path d="M18.78,38.07a3.8,3.8,0,0,1,1.88.57,1.77,1.77,0,0,1,.17.12c.21.19.19.23,0,.39a.93.93,0,0,1-1.06,0,2.11,2.11,0,0,0-1.21-.26.55.55,0,0,1-.47-.66.23.23,0,0,1,.15-.09C18.39,38.11,18.58,38.09,18.78,38.07Z"></path><path d="M14.47,34.17c.18.11.42.17.54.33a3.39,3.39,0,0,1,.8,2.07c0,.1-.05.28-.12.3a.44.44,0,0,1-.34-.08.93.93,0,0,1-.39-.57c-.17-.66-.35-1.32-.53-2Z"></path><path d="M34,25.33c.29.61-.26,3-.74,3.17a1.44,1.44,0,0,0-.11-.87,1.15,1.15,0,0,1,0-.49,2.33,2.33,0,0,1,.65-1.62Z"></path><path d="M15,25.37c.11.22.22.41.31.61a.2.2,0,0,1-.05.19,2.93,2.93,0,0,1-2,.76c-.19,0-.28-.14-.37-.3Z"></path><path d="M13.53,31.81a21,21,0,0,1-1.06-3,2.21,2.21,0,0,1,1.2,1.71,1.82,1.82,0,0,1,0,1.32Z"></path><path d="M14.53,5.82c0-.05,0-.13.06-.15a10.83,10.83,0,0,1,1.14-.44s0,.14-.06.15c-.36.17-.73.32-1.09.48Z"></path><path d="M13.05,6c0-.06,0-.14.08-.16a8.42,8.42,0,0,1,1.1-.45s0,.14-.08.16l-1,.48Z"></path><path d="M13.22,6.42s0-.13.07-.15c.32-.16.65-.31,1-.45,0,0,.09,0,.14,0s0,.11-.07.12l-1.06.49Z"></path><path d="M5.72,10.65l.94-.81c.13,0,.15.1,0,.19l-.81.69s-.11,0-.16,0Z"></path><path d="M17.07,4.72s-.06.12-.1.14a8.15,8.15,0,0,1-1.12.4c0-.06,0-.14.09-.16L17,4.67Z"></path><path d="M14.38,5.24l1-.44s.09,0,.14,0,0,.12-.08.13c-.31.15-.63.29-1,.42,0,0-.11,0-.17,0Z"></path><path d="M11.62,6.63s0,.13-.08.15c-.33.2-.66.38-1,.57l-.06,0c0-.06,0-.14.06-.16l1-.58Z"></path><path d="M16.91,4.26s0,.12-.09.14c-.32.14-.65.27-1,.39,0,0-.09,0-.14,0s.05-.1.08-.12l1.06-.42Z"></path><path d="M11.83,7.07s0,.12-.08.14c-.3.19-.61.36-.92.53,0,0-.11,0-.17,0V7.64L11.76,7Z"></path><path d="M6.84,9.7,7.76,9s.12,0,.18,0v.07c-.31.24-.62.48-.93.7,0,0-.11,0-.17,0Z"></path><path d="M11.74,6.61c0-.05,0-.14.09-.16l1-.52.06,0s0,.13-.08.16l-1,.52Z"></path><path d="M11.93,7.06s0-.13.07-.15c.32-.17.64-.34,1-.49,0,0,.09,0,.13,0s0,.11-.07.13l-1,.52Z"></path><path d="M10.36,7.47,9.3,8.14l-.06,0c0-.06,0-.14.07-.17.29-.2.59-.39.89-.57,0,0,.11,0,.17,0Z"></path><path d="M7.07,10.33l-1,.82H6.05c0-.06,0-.14,0-.17l.83-.71s.11,0,.17,0Z"></path><path d="M7.19,10.24,7.1,10.1l1-.77.06,0c0,.06,0,.14,0,.17C7.82,9.77,7.51,10,7.19,10.24Z"></path><path d="M9.31,8.5l.09.14-1,.66s-.12,0-.18,0l0-.07Z"></path><path d="M9.12,8.13c0,.06,0,.13-.06.16L8.1,9,8,8.93c0-.06,0-.14.06-.17L9,8.11Z"></path><path d="M10.59,7.77c0,.06,0,.13-.08.16l-1,.62-.06,0c0-.06,0-.14,0-.17l1-.62Z"></path><path d="M15.88,16.79l-1,.46-.05,0s0-.12.06-.13l.84-.41s.1,0,.15,0Z"></path><path d="M17.14,16.14c0-.05.08-.12.13-.14.84-.4.84-.39.93-.25l-1,.44Z"></path><path d="M18,15.37l-.93.4a.27.27,0,0,1-.12,0s0-.09.06-.11l.84-.36s.1,0,.15,0Z"></path><path d="M19.42,15.23l-1,.42s-.08,0-.12,0,0-.08.06-.1l.88-.37S19.32,15.18,19.42,15.23Z"></path><path d="M13.45,17.52l-.86.51s-.09,0-.13,0,0-.1.06-.12c.25-.17.52-.32.78-.47,0,0,.1,0,.15,0Z"></path><path d="M12.66,18.41c0-.05,0-.12.07-.14l.77-.46s.09,0,.14,0,0,.1-.06.11c-.28.18-.57.34-.86.51Z"></path><path d="M19.2,14.86l-.95.41s-.07,0-.11,0,0-.09.06-.11c.28-.12.57-.25.86-.36,0,0,.09,0,.14,0Z"></path><path d="M15.7,16.4c-.3.15-.59.29-.89.42,0,0-.09,0-.14,0s.05-.1.08-.12l.81-.38s.1,0,.16,0Z"></path><path d="M17.1,16.24l-1,.44s-.08,0-.12,0,0-.09,0-.1l.87-.39S17,16.19,17.1,16.24Z"></path><path d="M16.86,15.88l-.9.41a.57.57,0,0,1-.13,0s0-.11.06-.12l.83-.38s.1,0,.15,0Z"></path><path d="M13.53,17.3c.33-.15.65-.36,1-.49l.05.13c-.33.16-.66.36-1,.49Z"></path><path d="M10.3,19.33l.9-.6.06,0c0,.05,0,.12,0,.15l-.76.51s-.1,0-.15,0Z"></path><path d="M13.73,17.77c0-.05,0-.11.09-.14l.86-.45.06,0c0,.05-.05.12-.09.15l-.85.44Z"></path><path d="M12.34,18.07c0,.05,0,.13-.06.15l-.84.54-.06,0a.52.52,0,0,1,.06-.15l.84-.54Z"></path><path d="M9.49,20.4l.83-.57s.08,0,.12,0,0,.11,0,.13c-.25.18-.5.36-.76.52,0,0-.1,0-.15,0Z"></path><path d="M9.25,20.05l.92-.6a.78.78,0,0,0,.08.1c-.29.2-.56.39-.84.57,0,0-.1,0-.15,0Z"></path><path d="M11.58,19l.84-.53s.1,0,.14,0,0,.09-.05.11c-.26.17-.51.34-.78.49,0,0-.1,0-.15,0Z"></path><path d="M11.52,19.2c-.27.19-.55.37-.83.55a.19.19,0,0,1-.13,0s0-.09,0-.11c.25-.18.5-.35.76-.51,0,0,.1,0,.15,0Z"></path><path d="M13,10.69c.12.33.24.66.35,1,0,0,0,.1,0,.14s-.09-.05-.11-.09c-.1-.29-.21-.57-.3-.86a.62.62,0,0,1,0-.18Z"></path><path d="M12.94,12s-.11-.06-.13-.1c-.11-.3-.21-.6-.31-.9,0,0,0-.08,0-.13s.11.05.12.09c.12.32.23.65.34,1Z"></path><path d="M8.4,14.39s.1.06.11.1c.09.31.17.62.25.93a.84.84,0,0,1,0,.12s-.09,0-.1-.07c-.1-.34-.19-.69-.28-1Z"></path><path d="M13.26,13.23c-.12-.33-.23-.67-.33-1,0,0,0-.09,0-.13s.09.05.1.08c.1.3.21.6.3.91,0,0,0,.1,0,.15Z"></path><path d="M8.05,14.5c.25.7.32,1.1.15,1.18-.09-.39-.17-.76-.25-1.14C7.94,14.53,8,14.52,8.05,14.5Z"></path><path d="M13.67,13.08c-.11-.32-.22-.65-.32-1,0,0,0-.09,0-.14s.09,0,.1.08l.3.91s0,.1,0,.16Z"></path><path d="M11.49,24c-.14-.32-.27-.64-.4-1,0,0,0-.09,0-.14a.3.3,0,0,1,.11.07c.12.3.25.59.36.89,0,0,0,.1,0,.15Z"></path><path d="M15.34,21c0,.33.09.66.13,1,0,.06-.05.12-.07.17a.51.51,0,0,1-.09-.16c0-.29-.07-.58-.1-.86a.43.43,0,0,1,0-.16Z"></path><path d="M15.77,22.11c0-.35-.09-.69-.12-1,0,0,0-.08,0-.12s.09.07.1.1c0,.32.08.64.11,1,0,0,0,.08-.06.13Z"></path></g></g></symbol><use href="#1b52d905-3f63-4d72-a0d6-50b369692d6c"></use></svg>