<svg xmlns="http://www.w3.org/2000/svg" viewBox="0 0 45.42 51.15"><symbol id="08f6c24b-d723-4736-9bb1-65636cb5599d" viewBox="0 0 45.42 51.15"><title>rw-icon-web</title><g id="Layer_2" data-name="Layer 2"><g id="rw-icon-web"><path d="M45.42,23.78l-1,.37L43.12,21l-1.77,4.45L43.67,24c0,.46-.05.88-.09,1.3,0,0-.08.1-.13.12l-1,.29a.51.51,0,0,0-.26.14c-.63.55-1.25,1.11-1.88,1.68a.6.6,0,0,0-.16.19q-.27.45-.54.93c.23.09.18.27.16.45-.06.35-.1.7-.17,1.05a.36.36,0,0,1-.16.24,6.05,6.05,0,0,1-.55.32c-.3.17-.3.17-.58,0l-1.14,1.59c-1.79,2.42-3.46,4.93-5.06,7.48a.45.45,0,0,0-.07.42c.1.38.17.77.26,1.18l-.83.24a.48.48,0,0,0-.23.16A22.57,22.57,0,0,0,28.11,48a1.11,1.11,0,0,1-.62.67c-.2.1-.38,0-.55-.18,0,.17-.05.29-.08.41a2,2,0,0,1-1.75,1.55,8.09,8.09,0,0,1-2.73-.11c-1-.19-2-.41-3-.59a8.36,8.36,0,0,0-2.29,0c-.78.09-1.57.16-2.35.27-1,.13-1.93.28-2.9.45S10,50.8,9.05,51a7.55,7.55,0,0,1-1,.17,1.18,1.18,0,0,1-1-.52,34.75,34.75,0,0,1-2.41-3.72c0-.06-.07-.11-.1-.16h0a.68.68,0,0,1-.81.11c-.24-.1-.5-.15-.78-.24l.62-.83a1.39,1.39,0,0,1-.89-1.24c-.05-.33.09-.54.46-.72l-.9-2.46c-.32.07-.49-.06-.59-.44-.17-.68-.35-1.36-.52-2a.43.43,0,0,0-.23-.28,1.48,1.48,0,0,1-.59-2.2A2,2,0,0,1,.58,36a.81.81,0,0,0,.25-.56.61.61,0,0,1,.73-.6l.19,0c0-.5.06-1,.11-1.47.12-1.17.21-2.34.38-3.5.23-1.56.47-3.13.78-4.68a41,41,0,0,1,2.5-8.49,17.55,17.55,0,0,1,2.22-3.54,71.13,71.13,0,0,1,6.92-7.6c.8-.78,1.64-1.53,2.46-2.3a1.93,1.93,0,0,1,.21-.17.43.43,0,0,1,0-.63,5.8,5.8,0,0,1,.81-1A10.77,10.77,0,0,1,19.46.58a1.24,1.24,0,0,1,1.11,0,.45.45,0,0,0,.28,0A7.54,7.54,0,0,1,23.7,0a1.8,1.8,0,0,1,1.2.34.15.15,0,0,0,.11,0,2.81,2.81,0,0,1,1.55.13,6.21,6.21,0,0,1,.61.2,2.07,2.07,0,0,0,1,.2,1.59,1.59,0,0,1,1,.31,3.64,3.64,0,0,0,.49.22,1.51,1.51,0,0,1,.83.62s.08,0,.12.07c.41.19.83.37,1.23.57a.89.89,0,0,1,.52.73c0,.18.09.23.28.19a.69.69,0,0,1,.71.23.92.92,0,0,0,.47.27.74.74,0,0,1,.49.81.56.56,0,0,0,.48.44.52.52,0,0,1,.3.08c.27.18.52.4.79.58a.57.57,0,0,1,.25.51.33.33,0,0,0,.47.34c.14,0,.21,0,.29.11a3.43,3.43,0,0,0,.53.48c.18.13.28.27.22.48a.43.43,0,0,0,.17.46c.11.11.21.23.31.34h.05c.35-.19.35-.19.62.12a3.15,3.15,0,0,0,.35.38.29.29,0,0,1,.08.38.41.41,0,0,0,.1.55,3.12,3.12,0,0,1,.33.41h.06c.42-.23.39-.31.72.15l.13.16c.23.23.22.36,0,.58a.6.6,0,0,0-.12.11l.39.54L41,12a.29.29,0,0,1,.42,0c.16.16.32.31.46.48a.27.27,0,0,1,0,.21,1.16,1.16,0,0,0,.31,1,.81.81,0,0,1,.2.72.3.3,0,0,0,.05.2,6,6,0,0,1,.4.7,11.18,11.18,0,0,0,.71,1.32,2.27,2.27,0,0,1,.16,1.56c0,.2-.08.4-.1.6a1.12,1.12,0,0,0,0,.45c.55,1.45,1.11,2.89,1.66,4.33a1.4,1.4,0,0,0,.09.17Zm-31-16.86c-.35.34-.84.75-1.26,1.21-1.24,1.35-2.5,2.69-3.68,4.09-.82,1-1.56,2-2.31,3a4.48,4.48,0,0,0-.77,1.4c-.37,1.5-.67,3-1,4.55-.15.81-.23,1.63-.3,2.46S5,25.35,5,26.2a18.64,18.64,0,0,0,.25,3.58c.07.38.17.76.24,1.1.75-.27,1.46-.56,2.19-.8a19.67,19.67,0,0,1,5-.95,12.76,12.76,0,0,1,2.69.11,7.19,7.19,0,0,1,3.56,1.52,3.06,3.06,0,0,1,.87,3.87A15.94,15.94,0,0,1,18.92,36l0,0a14.72,14.72,0,0,1,2.6,2.69,8.33,8.33,0,0,1,1.68,4.33,11.89,11.89,0,0,1,0,2.31A14.79,14.79,0,0,1,22.7,48c0,.08,0,.16-.05.26l.53,0a7,7,0,0,0,2.14-.1c.33-.08.64-.27,1-.34a.41.41,0,0,0,.37-.42A5.66,5.66,0,0,1,27,45.94a20.42,20.42,0,0,1,1.81-3.47c0-.06.06-.12.11-.21l-1.08.3a2.42,2.42,0,0,1,0-.27c.07-.74.13-1.47.22-2.2,0-.2,0-.41.26-.54.79-.37,1.56-.8,2.33-1.21a.44.44,0,0,0,.21-.19,26,26,0,0,1,1.75-3.08c.51-.78,1-1.62,1.45-2.42.82-1.27,1.66-2.53,2.48-3.8a1.07,1.07,0,0,0,.13-.31c.06-.19,0-.42.31-.46,0,0,.07-.08.1-.13q2.27-4,4.54-8c.06-.12,0-.18,0-.28a1,1,0,0,1-.19-.51,2.18,2.18,0,0,1,.14-.63l-.39-.32-1.56,1.14A1.28,1.28,0,0,1,39.24,21c-.26-.28-.53-.56-.79-.85a.21.21,0,0,0-.26-.06,1.94,1.94,0,0,1-1.69-.18c-.12-.08-.17-.06-.26,0-.77.92-1.54,1.84-2.33,2.74-.13.16-.18.27,0,.42a.23.23,0,0,1,0,.33,6.16,6.16,0,0,1-.33.55.36.36,0,0,0,0,.46,1.17,1.17,0,0,1-.29,1.38c-.21-.17-.41-.34-.63-.5a.26.26,0,0,0-.21,0,6.75,6.75,0,0,0-.64.56.23.23,0,0,0,0,.19,3.91,3.91,0,0,1,0,.68,1.14,1.14,0,0,1-.47.78l-.68-.73a.19.19,0,0,0-.26-.05,4.45,4.45,0,0,1-.51.19,1,1,0,0,1-1-.1s-.15,0-.23,0c-.42.08-.84.21-1.26.25a5.39,5.39,0,0,1-2.65-.47.22.22,0,0,0-.3.06c-.72.73-1.45,1.45-2.18,2.17l-1,1c1.64,1.24,3.37,2.33,4.92,3.66.14.12.27.21.12.41a2.23,2.23,0,0,0-.2.33l-.22.41h.11a6,6,0,0,1,2.28,0,1.35,1.35,0,0,1,1.14,2,2.91,2.91,0,0,1-2,1.62,6.49,6.49,0,0,1-1.25.17,4.55,4.55,0,0,1-2-.25,1.4,1.4,0,0,1-.94-1.31,1.68,1.68,0,0,1,.8-1.32c.42-.29.89-.52,1.33-.77-.25-.3-.27-.31-.65-.14a1.47,1.47,0,0,1-.28.14.45.45,0,0,1-.2,0c0-.06,0-.15.1-.18l.55-.27c-.17-.14-.31-.27-.45-.4-.42-.36-.83-.76-1.28-1.09-.82-.6-1.67-1.17-2.51-1.75a8.45,8.45,0,0,0-1-.63c-.56-.29-1.14-.53-1.72-.78a.78.78,0,0,0-.33-.09,1,1,0,0,1-.87-.3c-.21-.24-.38-.51-.57-.76a1,1,0,0,0-.15-.2c-.18-.17-.37-.32-.54-.49A3.56,3.56,0,0,0,14,26.76l-.08,0L7.91,24a.2.2,0,0,1-.14-.28c.06-.23.1-.48.15-.72l.18-.75,6.12,3.13c.35.18.25.2.53-.07l1.76-1.64L18.21,22a.36.36,0,0,0-.05-.09,7.5,7.5,0,0,1-1.66-4.79.35.35,0,0,0-.12-.22c-.32-.26-.65-.51-1-.77l.32-.69-1-.43a1.33,1.33,0,0,1,1.53-.87l1-1.57-.84-.39a1.31,1.31,0,0,1,1.44-.87.56.56,0,0,0,.68-.22c.21-.29.53-.52.73-.82.74-1.16,1.45-2.33,2.18-3.5a.43.43,0,0,0,.05-.16c0-.19,0-.38.06-.59l-1.17-.53c.19-.73.86-1,2-.79a6.75,6.75,0,0,0,1.43-2.58,1,1,0,0,0-.22-.05,10.28,10.28,0,0,0-2.22.14,2.94,2.94,0,0,1-1.32.09.86.86,0,0,0-.65.1,8,8,0,0,0-1.69,1.49c-.64.87-1.36,1.68-2,2.55A58.37,58.37,0,0,0,10.85,14a32.93,32.93,0,0,0-3.5,9.14c-.15.73-.23,1.48-.32,2.22-.06.41-.07.82-.11,1.23a8,8,0,0,1,0-.85c.09-1,.16-2,.32-3A26.19,26.19,0,0,1,8.37,18.6,47.35,47.35,0,0,1,12.8,9.49C13.35,8.58,13.94,7.69,14.43,6.92ZM30.55,9l-.1.1c-.79,1.08-1.57,2.16-2.36,3.22a59.84,59.84,0,0,1-5,5.9c-.93,1-1.87,1.92-2.83,2.85-1.43,1.4-2.89,2.78-4.33,4.17-.24.22-.48.44-.73.69l1.25.64.36-.64c.25.11.5.2.73.33a.46.46,0,0,0,.66-.09s.09-.05.14-.08l0,.05-.23.21c0,.07-.23.12,0,.24l.39-.32,0,.05c-.07.17-.27.24-.38.39l.68,1.22.42-.3,0,.06-.25.23c-.17.13-.17.13-.09.25l.45-.33.06.06-.52.44,1.69,1.22c.3-.33.58-.66.89-1l5.17-5.15c1.31-1.33,2.62-2.66,3.9-4,.68-.72,1.32-1.49,2-2.24s1.36-1.62,2-2.44l1-1.22L34,11.87l-.16.13v-.31l-.19.11c0-.11,0-.22,0-.26-.33-.32-.67-.62-1-.93l-.37.32c0-.17.3-.25.17-.51l-.34.41L32,10.78l.29-.42-.86-.71Zm6.94.15c-.17-.18-.34-.35-.5-.53-.32-.34-.32-.34-.7-.07a.69.69,0,0,1-.94-.06.5.5,0,0,1,0-.84c.11-.1.25-.19.38-.3L35,6.56l-.59.38a.83.83,0,0,1-1.2-.42.23.23,0,0,1,.06-.3l.69-.56L33.06,5a.26.26,0,0,0-.21,0c-.16.08-.31.19-.47.27a.79.79,0,0,1-.93-.19c-.24-.32-.22-.47,0-.7L31.75,4,31,3.51c-.32-.21-.27-.22-.44.09a.83.83,0,0,1-.93.41.54.54,0,0,1-.43-.81c.11-.19.24-.37.37-.56L29,2.32a.25.25,0,0,0-.19,0l-.53.6s-.05.1-.1.13S27.05,3,27,2.74A2.27,2.27,0,0,1,27,2a1.57,1.57,0,0,1,.21-.46c-.24-.08-.46-.17-.69-.24l-.69-.19c-.68-.15-1,.08-1.17.77-.06.3-.13.59-.2.89a5,5,0,0,1-.88,1.62A38.64,38.64,0,0,1,39.84,18.29a12.18,12.18,0,0,0,2-1.74,3.66,3.66,0,0,0,.4-.57.28.28,0,0,0,0-.22q-.18-.33-.39-.66a1.18,1.18,0,0,1-.8.32c-.17,0-.3-.05-.35-.22a.38.38,0,0,1,.13-.45,2.2,2.2,0,0,0,.41-.45.2.2,0,0,0,0-.17c-.11-.19-.24-.37-.36-.56a.75.75,0,0,1-.78.15c-.32-.13-.45-.28-.18-.66.1-.14.22-.28.33-.42l-.52-.73-.32.17a.69.69,0,0,1-.79-.15c-.11-.13-.17-.27-.06-.42s.27-.37.42-.57c-.14-.17-.31-.37-.47-.58s-.21-.27-.51-.13a.93.93,0,0,1-.47.17.89.89,0,0,1-.66-.52A.28.28,0,0,1,37,9.52ZM22.39,48.24A13.89,13.89,0,0,0,23,43.76a8.41,8.41,0,0,0-.45-2.64,11,11,0,0,0-3.05-4.27c-.26-.24-.54-.47-.83-.71l-.14.16a4.76,4.76,0,0,1-2.16,1.3l-1.31.31c-2.71.62-5.41,1.22-8.11,1.85-.86.2-1.71.48-2.56.72-.11,0-.22.07-.17.23a10.72,10.72,0,0,0,.46,1.49c.71,1.56,1.45,3.09,2.2,4.63.24.5.53,1,.8,1.48-.94-2.6-1.74-5.24-2.55-7.85L17.85,37.4c0,.31,0,.56,0,.81,0,1.31.09,2.63.15,3.94,0,.56.06,1.13.1,1.7s.1,1.44.16,2.16c0,.44.06.88.11,1.32,0,.17,0,.22-.18.24-.32,0-.63.09-.94.14C19,47.65,20.66,48.14,22.39,48.24Zm3.73.55-.11,0a5.49,5.49,0,0,1-2,.26c-.58,0-1.17,0-1.76-.1s-1.11-.1-1.66-.18-1.32-.21-2-.28a14.27,14.27,0,0,0-3.2.09c-.85.11-1.69.27-2.53.42a41.24,41.24,0,0,0-4.54,1.13.46.46,0,0,1-.48-.08,1,1,0,0,1-.21-.24c-.13-.24-.24-.49-.38-.73a70.45,70.45,0,0,1-3.19-6.39,8.08,8.08,0,0,1-.7-2.77c-.06-.8,0-1.61,0-2.41a2.68,2.68,0,0,1,0-.4,7.5,7.5,0,0,1,.77-2.43A4.81,4.81,0,0,1,6.4,32.43,17.32,17.32,0,0,1,13,31a13.92,13.92,0,0,1,2,.08,4.79,4.79,0,0,1,2,.57,1.9,1.9,0,0,1,1.09,1.76,2.7,2.7,0,0,1-.78,1.85,4.49,4.49,0,0,1-2.15,1.19,48,48,0,0,1-5.2,1.1,35.92,35.92,0,0,0-4.14.92c-.6.18-1.19.39-1.76.59v.75c.57-.17,1.13-.36,1.69-.49l9.44-2.19a6.8,6.8,0,0,0,1.5-.42,4.88,4.88,0,0,0,2.32-2.34,2.2,2.2,0,0,0-.25-2.57A4.82,4.82,0,0,0,17,30.48a8.66,8.66,0,0,0-3-.62,14.69,14.69,0,0,0-3.38.25,22.09,22.09,0,0,0-4.5,1.31,3.86,3.86,0,0,0-2.13,1.92,12,12,0,0,0-1,2.78c-.17.8-.3,1.61-.42,2.41a3.9,3.9,0,0,0-.05,1A10.71,10.71,0,0,0,3.21,42a31.52,31.52,0,0,0,4.41,8.15.82.82,0,0,0,.42.25c.3.11.57-.06.85-.12.89-.18,1.79-.36,2.69-.51,1.17-.2,2.34-.39,3.51-.55.78-.11,1.57-.15,2.35-.23a8.06,8.06,0,0,1,2.35.11c1,.17,2,.44,3,.6a11,11,0,0,0,1.9.09,2.52,2.52,0,0,0,.87-.24A.91.91,0,0,0,26.12,48.79ZM22,7.33,19.89,10.8l5.38,3.9,2.38-3Zm-4.62,6.33,4.63,4.56.72-.77-.71-.65s0-.11-.06-.16l.06,0,.83.73.17-.19-.82-.74c.11-.11.11-.12.23,0l.71.64,1.6-1.78-5.44-3.94ZM29.94,8.52l-.18-.14a34.54,34.54,0,0,0-4-2.51c-.74-.39-1.5-.73-2.26-1.09-.07,0-.21,0-.23,0-.31.46-.62.92-.89,1.41s-.15.38.17.61l.14.11L27,10.22c.37.28.72.58,1.1.89ZM6,17.68h0l-.06.14c-.35,1-.72,2.05-1,3.08a54.07,54.07,0,0,0-1.26,5.32c-.16.81-.3,1.64-.42,2.46A8.85,8.85,0,0,0,3,30.21c0,.94.1,1.87.17,2.81a.9.9,0,0,0,0,.16,1.79,1.79,0,0,0,0,.21.93.93,0,0,0,.07-.13,4.32,4.32,0,0,1,2-2.21s.08-.14.06-.2A14,14,0,0,1,4.86,28c-.05-.8,0-1.6,0-2.4,0-.62,0-1.24.1-1.85s.18-1.52.3-2.27c.14-.92.32-1.83.49-2.75C5.8,18.41,5.88,18.05,6,17.68Zm33.51.92a24,24,0,0,0-3.38-4.55l-2,2.44s0,.05,0,.07L36.52,19a1.24,1.24,0,0,0,1.37.42C38.44,19.19,39,18.87,39.47,18.6Zm-6.16,3.72,2.53-3-2.25-2.23L31.14,19.9Zm-4.41-.08c.28.21.54.39.78.58.05,0,.05.1.08.16a.38.38,0,0,1-.16,0l-.83-.6-.69.77s0,0,0,0c1,.7,2.07,1.4,3.12,2.09a.27.27,0,0,0,.23,0A9,9,0,0,0,33,23.55a.27.27,0,0,0,0-.39c-.5-.59-1-1.2-1.51-1.79-.27-.31-.57-.6-.86-.91l-1.41,1.48.85.63-.07.09-.92-.6Zm-7.11-3.75L17.22,14l-.9,1.88,4.44,3.59Zm15.76,9.37c.68,0,.94-.59,1.32-1.07l0,.24c.34-.22.67-.42,1-.65a.73.73,0,0,0,.26-.29,33.55,33.55,0,0,0,2-4.7c.16-.48.3-1,.45-1.45L42,20ZM11.84,43.5h-.09a2.48,2.48,0,0,0,0-.27c0-.09-.08-.25-.11-.25s-.12.17-.13.28,0,0,0,.07c0,.25,0,.5,0,.76,0,.06-.08.13-.13.2s-.11-.15-.11-.22c0-.29,0-.59,0-.89-.17,0-.25.06-.25.23s0,.55-.06.82a.7.7,0,0,1-.11.23l-.07,0V43.37c-.21,0-.28.1-.28.29s0,.51,0,.76-.05.25-.23.26a.61.61,0,0,1,0-.11c0-.26,0-.53,0-.79,0-.06,0-.16-.08-.17s-.12,0-.18.07-.09.06-.12,0a.31.31,0,0,0-.35.18,1.36,1.36,0,0,0-.13,1,.38.38,0,0,0,.31.36c.2,0,.31-.09.37-.26.32.1.4.07.57-.25.3.14.34.12.55-.19.19.15.35.13.45-.1a1.59,1.59,0,0,0,.11-.49c0-.14,0-.21.2-.19.06.21.11.48.36.48s.3-.19.45-.3c.11.12.26.1.36-.08a.78.78,0,0,0,.09-.21c.09-.28.17-.56.26-.84a3.2,3.2,0,0,1,0,.44c0,.16,0,.31,0,.46.2.07.3,0,.31-.17a2.71,2.71,0,0,1,0-.4c0-.22,0-.46.23-.63a1.4,1.4,0,0,1,0,.29,5.83,5.83,0,0,0,0,.59c0,.07.09.17.14.17a.35.35,0,0,0,.26-.1,1,1,0,0,0,.17-.27c.14.27.33.17.58,0a3.28,3.28,0,0,1-.18.31,2.4,2.4,0,0,0-.4,1c-.05.26.13.46.35.38a.51.51,0,0,0,.25-.29,6.76,6.76,0,0,0,.18-1.08,1.22,1.22,0,0,1,.25-.62.16.16,0,0,1,.15,0c.17.17.33.1.49,0A1.38,1.38,0,0,0,16.8,42s0-.11-.06-.23l-.29.56a1.62,1.62,0,0,1-.11-.46c0-.2-.05-.4-.1-.6s-.08-.11-.13-.17-.12.09-.15.15-.06.24-.1.36c-.1.31-.21.62-.31.93l-.08,0c0-.17,0-.33,0-.49s.06-.33.1-.57l-.38.2c-.15-.07-.33,0-.5.2a1.91,1.91,0,0,0-.29.9,3.34,3.34,0,0,1-.1.4h-.09V42.9c0-.22.05-.44,0-.66s-.1-.2-.17-.21-.17.06-.24.13a.82.82,0,0,0-.15.24c-.15-.22-.28-.21-.38,0a2.15,2.15,0,0,0-.1.27c-.07.26-.14.52-.22.77a.61.61,0,0,1-.07.14.39.39,0,0,1-.05-.22c0-.23,0-.46,0-.68,0-.06-.06-.11-.09-.17s-.13.07-.15.12a.94.94,0,0,0-.06.29c0,.24,0,.48-.09.72s-.09.28-.27.24-.16-.23-.09-.39l0,0a3.7,3.7,0,0,0,.45-1.56.44.44,0,0,0,0-.28.57.57,0,0,0-.26-.2c-.14-.06-.19.06-.23.16a4.71,4.71,0,0,0-.26,1.67A1.11,1.11,0,0,1,11.84,43.5ZM31,25.56l-3.2-2.15-1,1,2.51,1.84a.36.36,0,0,0,.23,0A3.93,3.93,0,0,0,31,25.56Zm-13.7-7.95a6.6,6.6,0,0,0,1.49,3.88L20.2,20Zm-3.22,26.2L14,43.76l-.13.06c-.39.21-.78.43-1.18.63a.53.53,0,0,1-.25.08,2.62,2.62,0,0,0-1.49.6.44.44,0,0,1-.15.08c-.26.06-.52.13-.78.17a.77.77,0,0,1-.92-.47c-.06-.11-.14-.22-.21-.33.42-.37.55-.64.4-1.08s-.49-.76-1-.48a1.33,1.33,0,0,0-.63.75,3.26,3.26,0,0,0-.08,2,.75.75,0,0,0,.54.57c.23.06.4,0,.42-.23a5.3,5.3,0,0,0,0-.69v-.69c.07.06.11.08.13.12a2.67,2.67,0,0,1,.22.36c.32.57.55.67,1.2.55l.62-.1a.76.76,0,0,0,.59.57,2.16,2.16,0,0,0,1,0,2,2,0,0,0,1.13-.53.58.58,0,0,0-.2-1L13,44.59l.85-.57A1.24,1.24,0,0,0,14.05,43.81Zm14.77-6.88,0-.1h-.67a.76.76,0,0,1-.7-.26,2.22,2.22,0,0,0-.45-.34,3.16,3.16,0,0,0,.53-.2,2.35,2.35,0,0,0,.6-.43.24.24,0,0,0-.12-.44,1.93,1.93,0,0,0-.71-.09,4.44,4.44,0,0,0-2.48,1,2,2,0,0,0-.78,1c-.12.52,0,.75.42.82a1.41,1.41,0,0,0,1.44-.63,6.65,6.65,0,0,0,.34-.65c.07-.16.19-.21.33-.11a1.75,1.75,0,0,1,.36.36.63.63,0,0,0,.46.28c.37,0,.74,0,1.11,0A1.28,1.28,0,0,0,28.82,36.93ZM17.4,38.3a1.13,1.13,0,0,0-.18.07L6.43,43c-.24.1-.25.21-.17.38L17.4,38.61ZM37.12,31a3.19,3.19,0,0,0-1.43.91,5.49,5.49,0,0,0-1.41,1.76c-.05.16-.14.3-.18.45a5.1,5.1,0,0,0-.15.76,3,3,0,0,0,0,.5ZM8.24,48.73l.13,0c.94-.41,1.85-.88,2.81-1.23,2.1-.77,4.22-1.49,6.34-2.22.21-.07.2-.17.15-.35a74.49,74.49,0,0,0-9.53,3.63ZM25.17,26a4.13,4.13,0,0,0,2.81.24L26.25,24.9ZM2.83,31.19h0l-.33,4c.23-.47.4-.94.58-1.41a.75.75,0,0,0,0-.15c0-.43-.08-.86-.11-1.29S2.87,31.57,2.83,31.19Zm32.9-.36,0,0,1.29-1.15-.43-.32ZM32.8,37.15l.05,0L34,35.48h-.36a.24.24,0,0,0-.15.08C33.25,36.09,33,36.62,32.8,37.15ZM43,17.5l.08,0-.36-.84-.29.36C42.52,17.33,42.8,17.39,43,17.5ZM16.83,47s.12,0,.15-.1a.49.49,0,0,0,0-.23.5.5,0,0,0,0-.12c0-.08,0-.21-.08-.23a.3.3,0,0,0-.26,0c-.05,0,0,.16,0,.24s0,.1,0,.15S16.6,47,16.83,47Zm-.59.1c.12,0,.24-.09.24-.13a2.44,2.44,0,0,0-.09-.54s-.14-.08-.2-.06c-.35.12,0,.38-.1.56C16.07,47,16.21,47.12,16.24,47.11Zm-1.75.23,0,0a.46.46,0,0,0-.14-.07h-.2l0,0,.27-.18,0-.06a.39.39,0,0,1-.15,0s-.07,0-.11-.05l.1-.07s0,0,.07,0l.08-.09s-.07,0-.1,0l-.34.07.14.66Zm3-1.11c-.25,0-.44,0-.44.16h.29l-.18.56C17.31,47,17.48,46.57,17.48,46.23Zm-2.65.58,0-.05c-.11,0-.27-.08-.32.12s.14.2.28.25l-.24.11.06.11c.1-.05.27-.08.31-.17s-.18-.17-.27-.26ZM13.18,42l-.26-.24c-.06.07-.17.15-.16.22s.11.17.17.25Zm2.1,5.26c-.14-.15-.23-.28-.11-.47,0,0-.09-.12-.14-.18l-.1.11a1.22,1.22,0,0,0,.16.54Zm.34-.67a.43.43,0,0,1,.11.58h.32a2.63,2.63,0,0,1-.14-.3c0-.12,0-.25-.06-.41Zm-6.15,2.5a2.75,2.75,0,0,0-1.21.34l.13,0Z"></path><path d="M15.85,10.21a.83.83,0,0,0,.14.13c.2.15.42.28.61.45a.35.35,0,0,1,0,.57.43.43,0,0,1-.59.08,1.33,1.33,0,0,1-.52-.71,2.39,2.39,0,0,0-.13-.21c-.08.05-.21.08-.23.15a.35.35,0,0,0,.05.3,1.61,1.61,0,0,0,.33.23c.1.07.2.14.11.29s-.18.12-.3,0a2.18,2.18,0,0,0-.49-.2,1,1,0,0,0,.09.18c.07.1.15.19.22.28.25.31.23.43-.14.65a.78.78,0,0,1,0,.16.37.37,0,0,1-.53.39c-.09,0-.16-.1-.25-.13a.58.58,0,0,0-.19,0,1,1,0,0,0,.1.18.76.76,0,0,0,.17.13.47.47,0,0,1,.17.65c-.11.23-.25.44-.38.66l-.57-.29-.05.06.57.67a.37.37,0,0,1-.42.25H13c-.05.17.28.34,0,.47a.78.78,0,0,1,.1-1.21c.08-.06.17-.14.18-.22a.33.33,0,0,0-.24-.35,1,1,0,0,1-.58-.47.42.42,0,0,1,.17-.53.37.37,0,0,1,.49,0,.91.91,0,0,1,.27.62.51.51,0,0,1,0,.09l.48-.56a.39.39,0,0,1,.14-.47c.3-.24.53,0,.85.13-.05-.12-.06-.2-.11-.25a2.44,2.44,0,0,0-.31-.22c-.12-.06-.19-.15-.11-.27s.17-.2.32-.1A1.14,1.14,0,0,0,15,12l-.28-.38a.37.37,0,0,1,.1-.58.22.22,0,0,0,.09-.17.58.58,0,0,1,.56-.62,1,1,0,0,0,.25-.1c-.1-.21-.24-.36-.24-.52s.16-.28.29-.48A.43.43,0,0,1,16,8.71c.09-.05.1-.11.11-.21a1.24,1.24,0,0,1,.2-.42.76.76,0,0,0,.11-.22.64.64,0,0,1,.52-.56.63.63,0,0,1,.62.42.34.34,0,0,1,0,.24,4.11,4.11,0,0,1-.27.51.17.17,0,0,1-.27.07,3.84,3.84,0,0,0-.35-.18.89.89,0,0,0-.23,0c0,.09,0,.2,0,.25a2,2,0,0,0,.38.27c.14.07.11.14.05.25s-.11.18-.24.09A2.79,2.79,0,0,0,16.31,9a.85.85,0,0,0-.23,0c0,.08.05.18.11.23a2.13,2.13,0,0,0,.33.23l.13.1-.17.28A5.2,5.2,0,0,0,16,9.56c-.07,0-.18,0-.26,0s.06.19.13.23a2.45,2.45,0,0,0,.32.09.72.72,0,0,1,.23.12s0,.11,0,.12a.75.75,0,0,1-.26,0c-.06,0-.12,0-.18,0ZM17.23,8a.38.38,0,0,0-.37-.37.24.24,0,0,0-.15.16c0,.1.22.3.36.29A.3.3,0,0,0,17.23,8Zm-3,5.75c0-.17-.22-.42-.35-.4s-.13.11-.14.17.21.35.35.33S14.23,13.79,14.26,13.77Zm-.66,1a1,1,0,0,0-.15-.21.3.3,0,0,0-.18-.06c-.06,0-.1.1-.15.15s.11.12.18.13A1,1,0,0,0,13.6,14.79Zm2.72-3.49.05-.06a.63.63,0,0,0-.54-.42ZM13,13.41l0,0a3.3,3.3,0,0,0-.22-.3s-.09,0-.14,0,0,.12,0,.14A3.21,3.21,0,0,0,13,13.41Z"></path><path d="M17.55,6.94a.78.78,0,0,1-.24.09,1.35,1.35,0,0,0-1,.68c-.24.32-.46.66-.67,1a3,3,0,0,0-.14.42c-.23.43-.49.85-.71,1.29s-.42.94-.63,1.41c-.06.15-.1.3-.17.45s-.09.08-.13.12l-.06-.05.32-1.12c-.19.14-.35.28-.53.39s-.55,0-.56-.34a.84.84,0,0,1,0-.27,5,5,0,0,1,1.74-2.45,2.31,2.31,0,0,1,.54-.2.39.39,0,0,0,.19-.1c.2-.27.4-.54.58-.82a1.59,1.59,0,0,1,1.13-.74,3.61,3.61,0,0,0,.42-.16V6.48c-.16-.06-.32-.1-.47-.17a1.31,1.31,0,0,1-.35-.19.33.33,0,0,1-.08-.46A1,1,0,0,1,18,5.14a1.39,1.39,0,0,1,1,1,1.41,1.41,0,0,1-1,1.51.42.42,0,0,1-.48-.41C17.53,7.16,17.54,7.06,17.55,6.94Zm-4.1,4a1.59,1.59,0,0,1,1-1c-.29-.36-.14-.65.08-.92s.33-.29.49-.21.16.28.12.45S15,9.76,15,10a7.71,7.71,0,0,0,.44-.86,1.75,1.75,0,0,0,0-.4.21.21,0,0,0-.29-.21,2.88,2.88,0,0,0-.61.36,4.47,4.47,0,0,0-1.2,1.68,1.89,1.89,0,0,0-.12.71c0,.24.13.31.34.18a9.68,9.68,0,0,0,.82-.61l0,0-.32.09.13-.58,0,0ZM18,6.59c-.14.37-.07.57.2.62A.54.54,0,0,0,18.72,7,.74.74,0,0,0,18.63,6a1.84,1.84,0,0,0-1-.52,1.14,1.14,0,0,0-.45,0A.32.32,0,0,0,17,5.7s.07.15.14.18a3.52,3.52,0,0,0,.45.18,4.47,4.47,0,0,1,.6.25.4.4,0,0,1,.18.57Zm-3.69,3.93.07.05c.07-.05.17-.09.21-.17a3.11,3.11,0,0,0,.32-.63,1.32,1.32,0,0,0,0-.56c0-.11-.09-.21-.22-.14a.24.24,0,0,0-.15.31,1.1,1.1,0,0,0,.09.14.49.49,0,0,1,0,.69L14.5,10h-.06Z"></path><path d="M23.16,38.49a1.33,1.33,0,0,1-.19-.14c-.13-.18-.26-.37-.37-.56s0-.12,0-.18.12,0,.15.09a5.22,5.22,0,0,1,.38.54,1.29,1.29,0,0,1,.07.21Z"></path><path d="M30,36.56v-.92s.05-.1.08-.1.11,0,.11.06c0,.3,0,.59-.06.88C30.13,36.51,30,36.54,30,36.56Z"></path><path d="M30.08,36.78c-.16.25-.32.5-.49.75a.14.14,0,0,1-.11,0,.21.21,0,0,1,0-.13c.13-.24.27-.47.41-.69a.17.17,0,0,1,.12-.05S30,36.71,30.08,36.78Z"></path><path d="M28.39,34.2l-.87-.05s-.08-.08-.12-.12.09-.08.14-.08c.24,0,.49,0,.74,0,.06,0,.11.09.16.14Z"></path><path d="M29.4,37.6c.06.21-.53.74-.75.68A1.71,1.71,0,0,1,29.4,37.6Z"></path><path d="M29.48,34.52a.45.45,0,0,1-.17,0c-.24-.09-.49-.18-.72-.29,0,0-.07-.08-.07-.13s.08-.07.11-.06l.77.31S29.44,34.45,29.48,34.52Z"></path><path d="M26.7,39.09,26.54,39c.06,0,.11-.11.17-.12l.69-.1a.52.52,0,0,1,.16.06s-.08.12-.13.13Z"></path><path d="M25.71,39.15a.44.44,0,0,1-.17,0s-.07-.06-.11-.1.07-.09.11-.09c.26,0,.51,0,.77-.05,0,0,.09.07.14.11s-.08.09-.13.1Z"></path><path d="M26.26,34.11s.07-.12.11-.12l.85,0s.07.06.08.1-.05.07-.08.07l-.92.05Z"></path><path d="M28.59,38.36a.52.52,0,0,1-.12.16l-.65.31s-.11,0-.17,0,.06-.11.11-.14l.6-.29a.65.65,0,0,1,.2,0Z"></path><path d="M24.13,34.86a1.17,1.17,0,0,1-.14.19l-.53.41a.53.53,0,0,1-.17,0s0-.12,0-.14l.7-.52S24.05,34.85,24.13,34.86Z"></path><path d="M25,39.12c-.18,0-.36,0-.53-.06s-.11-.09-.17-.13a.45.45,0,0,1,.18-.07c.24,0,.47,0,.7.08.05,0,.09.07.14.11a.51.51,0,0,1-.15.07,1,1,0,0,1-.17,0Z"></path><path d="M23.31,38.47a1.13,1.13,0,0,1,.18,0l.64.27s.06.09.09.13-.11.07-.15.06c-.23-.09-.46-.18-.68-.29-.05,0-.08-.1-.12-.16Z"></path><path d="M22.66,36.45c0-.07-.08-.13-.06-.16A8.09,8.09,0,0,1,23,35.6s.1,0,.15,0,0,.12,0,.16c-.13.21-.27.41-.41.62A.76.76,0,0,1,22.66,36.45Z"></path><path d="M22.61,37.58c-.07-.1-.14-.15-.14-.21a6.54,6.54,0,0,1,0-.77s.09-.06.13-.09.07.07.07.11c0,.26,0,.53,0,.79A1,1,0,0,1,22.61,37.58Z"></path><path d="M29.54,34.6c.28,0,.62.52.56.83A2.42,2.42,0,0,1,29.54,34.6Z"></path><path d="M16.05,11.52s.1.1.09.11a2.4,2.4,0,0,1-.28.27s-.15-.09-.14-.12S15.84,11.53,16.05,11.52Z"></path><path d="M13.11,14.18a1.51,1.51,0,0,1-.26.19s-.07-.06-.1-.09.13-.13.21-.19S13,14.13,13.11,14.18Z"></path><path d="M22.64,25l.47-.49C23.12,24.68,22.72,25.05,22.64,25Z"></path><path d="M20.36,24.51c.22-.31.45-.5.56-.47C20.76,24.3,20.5,24.52,20.36,24.51Z"></path><path d="M21.28,23.19l.54-.57C21.87,22.78,21.55,23.14,21.28,23.19Z"></path><path d="M21,23.94l.5-.49s0,0,0,.06L21,24Z"></path><path d="M24.06,23.14c0,.14-.09.29-.45.58C23.57,23.62,23.64,23.52,24.06,23.14Z"></path><path d="M24.28,23.38l-.55.46A1.52,1.52,0,0,1,24.28,23.38Z"></path><path d="M20.24,24.36l.49-.51,0,0-.51.5Z"></path><path d="M23,24.26c0-.18.39-.49.48-.48Z"></path><path d="M20.78,23.76c.08-.21.41-.51.48-.49Z"></path><path d="M22.08,22.89l-.5.53C21.55,23.26,21.84,22.94,22.08,22.89Z"></path><path d="M23.72,24l-.51.5C23.17,24.37,23.47,24,23.72,24Z"></path><path d="M22.44,24.82c0-.08.27-.4.49-.48l.08.09Z"></path><path d="M20.19,24.44l-.54.49C19.71,24.68,20,24.4,20.19,24.44Z"></path><path d="M24.73,22.59a.75.75,0,0,1,.53-.56Z"></path><path d="M19.58,25a3.09,3.09,0,0,1-.54.48L19,25.42l.53-.49Z"></path><path d="M25.81,21.43l-.49.53-.07-.07.48-.53Z"></path><path d="M25.45,22.21l-.49.52-.08-.07.5-.52Z"></path><path d="M24.86,19.86c-.08.2-.4.52-.54.5l.49-.54Z"></path><path d="M27.65,19.77l-.48.53-.07-.06.47-.54Z"></path><path d="M30.75,13l-.47.58C30.23,13.42,30.57,13,30.75,13Z"></path><path d="M23.07,21.47a.72.72,0,0,1,.51-.55Z"></path><path d="M26.36,20.81l-.49.56A.73.73,0,0,1,26.36,20.81Z"></path><path d="M27.1,20.38l-.48.55-.07-.07.48-.54Z"></path><path d="M26.44,20.75c-.06-.12.18-.45.42-.59l0,0Z"></path><path d="M24.19,20.22c0-.12,0-.19.42-.57C24.66,19.75,24.44,20.06,24.19,20.22Z"></path><path d="M27.65,19.63l.46-.57c0,.16-.2.47-.42.6Z"></path><path d="M25.41,19.14l.51-.57C25.92,18.79,25.58,19.16,25.41,19.14Z"></path><path d="M28.74,18.49l-.51.6A.79.79,0,0,1,28.74,18.49Z"></path><path d="M25.8,18.47l-.5.54C25.31,18.8,25.63,18.46,25.8,18.47Z"></path><path d="M30.79,13c-.05-.16.26-.57.49-.62Z"></path><path d="M29.56,17.1l-.45.53h0c0-.05,0-.1,0-.13s.23-.35.41-.45Z"></path><path d="M29.18,14.92l-.46.55-.08-.06.46-.56Z"></path><path d="M30.56,12.8l-.49.61C30,13.27,30.31,12.87,30.56,12.8Z"></path><path d="M33.12,12.57l-.43.58-.08-.06.42-.58Z"></path><path d="M31.3,12.31c-.05-.17.26-.57.47-.62Z"></path><path d="M20.74,26.8l-.53.48c-.06-.11,0-.2.46-.53Z"></path><path d="M29,14.62l.44-.57.07,0a3.47,3.47,0,0,1-.44.57Z"></path><path d="M29.54,14.08a.76.76,0,0,1,.47-.6Z"></path><path d="M24.68,22.63l-.49.53c0-.14.22-.45.45-.57Z"></path><path d="M18.57,26.16l.53-.49.07.08-.53.48Z"></path><path d="M30.14,13.55c.05.15-.11.39-.4.63C29.77,13.93,30,13.8,30.14,13.55Z"></path><path d="M21.25,26c0-.13.16-.34.47-.55C21.76,25.57,21.75,25.58,21.25,26Z"></path><path d="M19.18,25.61l.51-.49.08.08-.53.48Z"></path><path d="M28,18.83l.45-.55.06,0a2,2,0,0,1-.44.56Z"></path><path d="M26.44,18c0,.15-.23.5-.47.57Z"></path><path d="M28.77,18.46c0-.17.26-.53.47-.58Z"></path><path d="M28.44,15.23l.46-.54.06.05a2.93,2.93,0,0,1-.45.55Z"></path><path d="M28.5,18.21l.46-.56.07.06-.45.56Z"></path><path d="M27.08,17.41l-.53.59C26.57,17.76,26.89,17.41,27.08,17.41Z"></path><path d="M29.22,17.76l.46-.56C29.76,17.33,29.42,17.76,29.22,17.76Z"></path><path d="M31.55,11.54l-.45.58C31,12,31.35,11.56,31.55,11.54Z"></path><path d="M22.6,22.27l-.45.44C22.18,22.59,22.5,22.27,22.6,22.27Z"></path><path d="M29.84,17.17c0-.2.31-.58.46-.56Z"></path><path d="M26.83,17.11l.49-.55C27.33,16.77,27,17.14,26.83,17.11Z"></path><path d="M27.38,16.48l.47-.54.07.07-.46.54Z"></path><path d="M33.33,12.73l-.43.58-.09-.06.44-.58Z"></path><path d="M28.12,16l.45-.55.07,0a4,4,0,0,1-.45.55Z"></path><path d="M19.92,27c-.05.22-.45.53-.61.49Z"></path><path d="M22.45,22l.5-.52.07.07-.49.53Z"></path><path d="M26.55,21l-.5.56A.8.8,0,0,1,26.55,21Z"></path><path d="M31,12.2l-.46.58C30.54,12.62,30.81,12.25,31,12.2Z"></path><path d="M24.31,20.47c-.14.25-.4.51-.56.5l.51-.54Z"></path><path d="M23.6,20.79a2.36,2.36,0,0,1,.46-.54l.07.06-.48.53Z"></path><path d="M21.34,26.14l.59-.52A.83.83,0,0,1,21.34,26.14Z"></path><path d="M18.39,26l.54-.46.06.07-.54.47Z"></path><path d="M27.46,19.58l-.51.57C27,19.93,27.29,19.56,27.46,19.58Z"></path><path d="M22.5,25.07c0,.22-.37.53-.54.5Z"></path><path d="M31.82,14.69l-.43.57-.08-.06.43-.57Z"></path><path d="M27.44,19.45l.47-.56C28,19,27.65,19.42,27.44,19.45Z"></path><path d="M26,21.61l-.48.52-.05-.05c.1-.23.31-.35.46-.54Z"></path><path d="M32.32,13.91l.42-.58c.08.11-.05.32-.36.61Z"></path><path d="M31.63,14.52l-.49.6C31.15,14.88,31.47,14.5,31.63,14.52Z"></path><path d="M32.11,13.74l.43-.57.08.06-.43.57Z"></path><path d="M29.17,14.77l.46-.55.07.06-.45.55Z"></path><path d="M30.82,15.85c.1-.24.35-.53.52-.53l-.47.58Z"></path><path d="M27.87,15.9l.53-.63A.85.85,0,0,1,27.87,15.9Z"></path><path d="M30.36,16.53c0-.23.29-.57.46-.56Z"></path><path d="M29.55,16.94l.46-.55.07.06-.45.56Z"></path><path d="M27.05,17.28l.48-.56A.74.74,0,0,1,27.05,17.28Z"></path><path d="M26.32,17.87l-.48.53-.07-.06.47-.54Z"></path><path d="M25.23,19.1l-.48.52-.07-.06.48-.53Z"></path><path d="M25.43,19.28l-.48.53-.07-.07.48-.53Z"></path><path d="M23.75,21.07c-.1.23-.4.52-.55.48Z"></path><path d="M19.46,27.75l.63-.51A.85.85,0,0,1,19.46,27.75Z"></path><path d="M20,27l.55-.47.06.08-.55.46Z"></path><path d="M21.18,26.06l-.53.48-.06-.07.53-.48Z"></path><path d="M22.65,22.14l.5-.51.07.07c-.18.16-.3.39-.52.5Z"></path><path d="M19.77,25.08l.51-.52C20.33,24.7,20,25.06,19.77,25.08Z"></path><path d="M32,10.88c0,.25-.25.39-.39.58C31.61,11.21,31.82,11.06,32,10.88Z"></path><path d="M32.12,13.88l-.44.57-.07-.06.42-.57Z"></path><path d="M32.33,14l-.45.59c0-.16.21-.5.4-.62Z"></path><path d="M30.58,15.67l.45-.56.08.06-.45.56Z"></path><path d="M30.07,16.31l.45-.56.07.06-.45.56Z"></path><path d="M28.14,16.17l-.48.55C27.66,16.5,28,16.16,28.14,16.17Z"></path><path d="M26.31,17.72l.48-.53.07.06-.47.53Z"></path><path d="M21.35,26.27l-.53.47-.05,0a2.68,2.68,0,0,1,.52-.49Z"></path><path d="M21.85,25.47c0-.16.25-.44.48-.57l0,0Z"></path><path d="M33.31,12.59l.43-.57.08.06-.43.57Z"></path><path d="M33.61,11.91l-.43.58-.08-.06.43-.57Z"></path><path d="M22.42,22.1c-.07.19-.4.5-.56.46Z"></path><path d="M31.73,11.57l.42-.56c.07.12-.14.45-.37.6Z"></path><path d="M24.88,22.81l-.5.52,0,0,.52-.49Z"></path><path d="M33.69,9.05c.49.33.84.71.76.87l-.82-.77Z"></path><path d="M33.46,9l-.9-.74c.12,0,.2,0,.23,0,.24.19.48.38.71.58,0,0,0,.1,0,.15Z"></path><path d="M28.4,5.35l.94.54,0,.06c-.06,0-.12,0-.16,0l-.81-.45s0-.1-.05-.14Z"></path><path d="M27,5.18c.05,0,.12,0,.16,0l.78.41s.06.1.09.14l-.05,0-1-.51Z"></path><path d="M35,11.15l-.65-.74s0-.1,0-.16.11,0,.14.05l.62.59a.48.48,0,0,1,.07.18Z"></path><path d="M27.25,4.75l.86.45a.35.35,0,0,1,.08.13.22.22,0,0,1-.14,0c-.26-.12-.52-.25-.77-.39,0,0-.06-.1-.09-.15Z"></path><path d="M25.82,4.26c-.32-.12-.63-.23-.94-.36,0,0-.05-.07-.08-.11s.09,0,.12,0c.29.1.58.22.87.34,0,0,.05.08.07.13Z"></path><path d="M33.35,9.41s.12,0,.16,0c.23.2.46.4.68.61,0,0,0,.08,0,.12s-.11,0-.14,0c-.25-.21-.5-.44-.74-.66Z"></path><path d="M37,13s.12,0,.15.06c.2.22.38.45.57.68a.37.37,0,0,1,0,.15s-.1,0-.13-.05c-.22-.25-.43-.52-.64-.77Z"></path><path d="M34.61,10s.11,0,.14,0l.66.63a.5.5,0,0,1,0,.13s-.11,0-.13,0C35.07,10.48,34.85,10.22,34.61,10Z"></path><path d="M36.19,12l.68.75s0,.08,0,.12-.1,0-.12,0c-.21-.22-.41-.44-.61-.67,0,0,0-.11,0-.17Z"></path><path d="M35.26,11.17c.26.22.51.44.75.67,0,0,0,.08,0,.12s-.1,0-.12,0c-.22-.22-.44-.45-.65-.68C35.24,11.25,35.26,11.17,35.26,11.17Z"></path><path d="M37.38,12.74l.69.84,0,.06s-.13,0-.16,0c-.2-.23-.39-.46-.57-.7,0,0,0-.11,0-.17Z"></path><path d="M29.06,6.39l-.84-.48s-.06-.09-.09-.14a.4.4,0,0,1,.16,0c.25.14.51.28.75.43,0,0,.06.1.08.15Z"></path><path d="M25.82,4.65c.05,0,.12,0,.17,0,.27.11.54.24.81.36a.3.3,0,0,1,.07.11s-.1,0-.13,0l-.93-.42Z"></path><path d="M26,4.28c.06,0,.12,0,.16,0l.83.38s.05.08.07.13a.62.62,0,0,1-.13,0L26,4.34Z"></path><path d="M37.12,12.67,36.47,12s0-.1,0-.14.11,0,.14,0c.2.21.39.43.58.65a.43.43,0,0,1,0,.17Z"></path><path d="M39.23,16s-.12,0-.15,0l-.58-.83,0-.06c.06,0,.13,0,.16.08.2.26.38.52.56.79Z"></path><path d="M24.63,4.19c.05,0,.11-.06.14,0,.32.11.63.24.94.36l0,.07c-.05,0-.11,0-.16,0l-.94-.36Z"></path><path d="M30.14,7.08l-.83-.54s0-.08-.07-.12.11,0,.14,0l.77.49s0,.1.06.15Z"></path><path d="M30.53,6.75c.06,0,.13,0,.17,0,.25.16.49.33.73.5a.45.45,0,0,1,.06.14s-.12,0-.15,0l-.81-.55Z"></path><path d="M30.38,7l.9.63v.06a.34.34,0,0,1-.17,0c-.25-.17-.5-.34-.74-.52,0,0,0-.1-.06-.15Z"></path><path d="M31.56,7.55c.15-.1.59.16.93.51,0,0,0,.09,0,.14l-.06,0Z"></path><path d="M31.31,7.88l.11-.11.88.67v.05s-.12,0-.16,0Z"></path><path d="M32.36,8.6c.06,0,.13,0,.17,0,.24.18.47.37.69.56,0,0,0,.09,0,.14s-.11,0-.14,0l-.77-.63Z"></path><path d="M35.53,10.85a.69.69,0,0,1,.17.05c.2.2.39.41.58.62,0,0,0,.1,0,.15a.66.66,0,0,1-.15-.05c-.25-.2-.49-.41-.73-.62Z"></path><path d="M30.48,6.66c-.09,0-.15,0-.18,0l-.79-.49s0-.08-.05-.12.09,0,.11,0l.82.51Z"></path><path d="M38.87,14.8c.05,0,.13,0,.15,0,.2.27.39.55.59.83l0,.06s-.13,0-.16-.08l-.55-.78Z"></path><path d="M39.72,15.84c.17.28.35.55.52.82,0,0,0,.1,0,.15a.52.52,0,0,1-.15-.06L39.65,16s0-.12,0-.17Z"></path><path d="M39.36,16.06,40,17l0,.06a.52.52,0,0,1-.15-.06c-.17-.25-.33-.51-.48-.77,0,0,0-.1,0-.15Z"></path><path d="M38.1,13.77s.13,0,.16.06c.18.23.36.47.53.71,0,0,0,.08,0,.12s-.11,0-.14,0l-.6-.79Z"></path><path d="M38.48,14.93s-.12,0-.15-.07a5.29,5.29,0,0,1-.58-.83s.13,0,.15,0l.62.81Z"></path><path d="M21.31,39.33l.57,1,0,.06c-.05,0-.12,0-.14-.08-.16-.25-.32-.51-.46-.76,0,0,0-.11,0-.17Z"></path><path d="M21,39.22l-.67-.84v-.06c.05,0,.13,0,.16,0l.56.69s0,.12,0,.18Z"></path><path d="M20.73,39.51l-.7-.87,0-.07a.49.49,0,0,1,.16.06C20.82,39.31,20.85,39.36,20.73,39.51Z"></path><path d="M18.15,36.87c.05,0,.12,0,.15,0,.24.18.48.38.71.57,0,0,0,.09,0,.14s-.09,0-.11,0l-.8-.66Z"></path><path d="M22.67,44.26c-.13,0-.18-.46-.09-1.13,0,0,.08.08.08.12C22.67,43.59,22.67,43.93,22.67,44.26Z"></path><path d="M19.37,37.2l-.1.11-.91-.74c.11,0,.18,0,.2,0Z"></path><path d="M21.46,48c.09-.31.17-.62.27-.92,0,0,.07-.08.11-.11s.05.1,0,.14c-.08.28-.16.56-.25.84,0,0-.08.07-.12.11Z"></path><path d="M20.2,38.22l-.77-.81c.1-.15.16,0,.23.05C20.31,38.09,20.31,38.09,20.2,38.22Z"></path><path d="M22.23,46.8c.06-.34.11-.63.18-.93,0,0,.05-.06.09-.09s.07.09.06.13c0,.3-.11.59-.17.89,0,0-.06.06-.09.09Z"></path><path d="M22.23,47.05c0,.05.07.1.06.14-.08.3-.17.59-.26.87,0,0-.07.07-.1.1s-.05-.11,0-.15l.27-.93Z"></path><path d="M22,41.92c.06.3.12.61.17.91,0,.05,0,.11-.05.17s-.09-.09-.1-.14c-.06-.27-.11-.55-.15-.83,0,0,0-.1.06-.15Z"></path><path d="M21.85,41.76l-.38-1,0-.05c.05,0,.13,0,.14.07.12.28.23.56.33.85,0,0,0,.1,0,.15Z"></path><path d="M22.54,45.62s-.08-.09-.07-.14q0-.43.06-.87s.06-.09.08-.14.09.11.08.16c0,.32-.06.64-.09.95Z"></path><path d="M22.6,42.94s-.1-.07-.11-.12c-.07-.28-.12-.56-.17-.85,0,0,0-.1.05-.16s.1.1.11.15c.06.31.11.61.16.92Z"></path><path d="M22,40.52c.11.31.23.62.34.92,0,0,0,.1,0,.15s-.1-.05-.11-.08c-.11-.28-.22-.55-.32-.83a.45.45,0,0,1,0-.16Z"></path><path d="M20.82,39.63l.12-.09.14.22c.12.2.25.41.36.61s0,.12,0,.18-.11,0-.13-.09C21.15,40.19,21,39.92,20.82,39.63Z"></path><path d="M22.09,45.68c0,.07.06.13.05.19-.06.31-.13.63-.2,1-.06-.06-.13-.1-.13-.13l.21-1Z"></path><path d="M19.93,38.53c-.69-.61-.8-.75-.72-.89l.79.78S20,38.48,19.93,38.53Z"></path><path d="M22.28,43.74v.44s0,.06-.06.09-.07-.06-.07-.09c0-.3,0-.59,0-.89,0,0,0-.08.07-.13s.09.09.09.13,0,.3,0,.45Z"></path><path d="M22.25,44.46c.06.45,0,1-.2,1.1a8,8,0,0,1,.1-1.12Z"></path><path d="M21.11,15.75l.77.7s0,.08,0,.12-.1,0-.13,0L21.1,16a.31.31,0,0,1-.05-.17Z"></path><path d="M20,14.9l-.84-.8c.1,0,.18,0,.2,0,.24.21.47.43.7.66,0,0,0,.09,0,.14Z"></path><path d="M18.7,12.79l.65.75a.33.33,0,0,1,0,.14.49.49,0,0,1-.14,0c-.22-.2-.42-.4-.63-.61,0,0,0-.11-.06-.16Z"></path><path d="M22.23,16.2l-.1.11-.83-.75V15.5c.06,0,.14,0,.18,0Z"></path><path d="M20.18,14.9l.76.7s0,.08,0,.12-.09,0-.12,0l-.68-.63s0-.1,0-.15Z"></path><path d="M18.35,13.13l.76.86c-.06.1-.13,0-.2-.08C18.25,13.27,18.25,13.27,18.35,13.13Z"></path><path d="M20.25,14.6l-.8-.75v-.07c.06,0,.13,0,.17,0l.74.69Z"></path><path d="M21.27,15.4c-.05,0-.13,0-.16,0-.23-.19-.45-.4-.66-.6a.42.42,0,0,1,0-.16l.06,0,.81.74Z"></path><path d="M30.1,22.7s.13,0,.17,0c.27.18.53.38.79.57v.06c-.06,0-.13,0-.17,0l-.8-.57Z"></path><path d="M31.12,23.43a.46.46,0,0,1,.17,0c.25.16.48.33.72.5,0,0,0,.09.06.14a.36.36,0,0,1-.15,0l-.8-.55Z"></path><path d="M31.87,24.41c-.05,0-.12,0-.16,0-.28-.18-.56-.38-.83-.57v-.07c.05,0,.12,0,.16,0,.28.18.55.37.82.56Z"></path><path d="M30.74,23.76l-.9-.64v-.06c.06,0,.13,0,.17,0l.74.53s0,.1,0,.15Z"></path><path d="M14.72,42.76c.07-.22.12-.42.2-.61s.09-.09.14-.13.09.13.09.19a3.9,3.9,0,0,1-.14.59c0,.08-.12.13-.18.19Z"></path><path d="M10,44.41c0,.13,0,.26-.08.39s-.08.08-.13.12-.1-.1-.1-.14a4.44,4.44,0,0,1,0-.63s.1-.08.15-.12a.51.51,0,0,1,.09.16.74.74,0,0,1,0,.21Z"></path><path d="M12.17,43l.19-1.21C12.53,41.93,12.41,42.7,12.17,43Z"></path><path d="M16,41.91a3.46,3.46,0,0,1,0,.56c0,.06-.1.12-.16.18s-.12-.18-.1-.26a3.94,3.94,0,0,1,.18-.48Z"></path><path d="M14.83,44.72a1,1,0,0,1,.24-.84C15,44.18,15.05,44.46,14.83,44.72Z"></path><path d="M11.76,46.21a1.06,1.06,0,0,1-.82-.34.43.43,0,0,1,0-.53,1.22,1.22,0,0,1,.31-.33A2.23,2.23,0,0,1,13,44.66h0c.26.09.53.21.57.5a.7.7,0,0,1-.35.62A2.27,2.27,0,0,1,11.76,46.21ZM13,45.62l-.71-.3a4.23,4.23,0,0,0,.42-.25.27.27,0,0,0,.07-.22.28.28,0,0,0-.19-.14,1.43,1.43,0,0,0-1.42.74.4.4,0,0,0,.09.54.51.51,0,0,0,.58-.17c0-.09.09-.2.14-.3s.08-.14.11-.14a.32.32,0,0,1,.17.11A.57.57,0,0,0,13,45.62Z"></path><path d="M8.58,43.62c-.24.07-.29.3-.31.49,0,.4,0,.81,0,1.22,0,.17,0,.34,0,.51s-.1.15-.15.23S8,46,7.93,45.9a2.67,2.67,0,0,1-.14-.67A3.14,3.14,0,0,1,8,43.68a1.28,1.28,0,0,1,.39-.47.32.32,0,0,1,.52.21,2.09,2.09,0,0,1,0,.66c0,.16-.15.28-.38.31Z"></path><path d="M26.38,36.16l.3-.51a1.38,1.38,0,0,0-.91.74c-.15.3-.26.62-.39.94a.59.59,0,0,1-.54.37c-.17,0-.28-.09-.27-.28a1.86,1.86,0,0,1,.48-1,3.07,3.07,0,0,1,1.81-1.1,1.66,1.66,0,0,1,.44,0,.24.24,0,0,1,.16.42,3,3,0,0,1-.55.38,3.5,3.5,0,0,1-.46.14Z"></path><path d="M12.13,45.21l0-.21c-.24.07-.3.26-.37.45a1.56,1.56,0,0,1-.1.37c0,.06-.14.08-.21.12s-.1-.15-.09-.21a1.11,1.11,0,0,1,.78-.91.39.39,0,0,1,.21,0c.06,0,.14,0,.15.08a.19.19,0,0,1,0,.18,2.43,2.43,0,0,1-.35.2Z"></path></g></g></symbol><use href="#08f6c24b-d723-4736-9bb1-65636cb5599d"></use></svg>