<svg xmlns="http://www.w3.org/2000/svg" viewBox="0 0 43.1 51.16"><symbol id="09febc61-dcd0-42a4-a083-618850e01d19" viewBox="0 0 43.1 51.16"><title>rw-icon-back</title><g id="Layer_2" data-name="Layer 2"><g id="rw-icon-back"><path d="M23.68,51.16c-.17-.32-.34-.63-.5-.95a.28.28,0,0,0-.25-.18c-.44,0-.89,0-1.33-.1a6.84,6.84,0,0,1-2.64-1,14.65,14.65,0,0,1-3.79-3.36,2.34,2.34,0,0,0-.32-.31,3.54,3.54,0,0,1-.76-1.11c-.18-.35-.37-.69-.57-1a.32.32,0,0,0-.15-.13,1.27,1.27,0,0,1-.89-1.56,1.36,1.36,0,0,0-.12-.89c-.17-.36-.32-.73-.5-1.1a.52.52,0,0,0-.23-.21.5.5,0,0,1-.3-.3c-.11-.3-.24-.59-.38-.92l.25,0-1-1.7c-.41-.21-.58-.64-.88-1a1.16,1.16,0,0,1-.16-.2l.34,0A3.31,3.31,0,0,0,9,34.43c-.15-.12-.36-.21-.51-.35a2.44,2.44,0,0,1-.27-.29c-.19-.22-.18-.26,0-.49l-.16-.24a1.87,1.87,0,0,1-.2-1.87.36.36,0,0,0,0-.25c-1.25-2.8-2.36-5.66-3.45-8.53-.32-.83-.67-1.64-1-2.47-.06-.14-.11-.19-.28-.15a.88.88,0,0,1-.69-.08.81.81,0,0,1-.27-1.1,1,1,0,0,0,.07-.15l-.61-.56L1,18.78l-1-.85L1.11,16.7,2.62,15a.37.37,0,0,0,.1-.24,6.79,6.79,0,0,1,3-5.48A3.23,3.23,0,0,1,7.3,8.68a.26.26,0,0,0,.24-.17c.08-.17.19-.32.29-.49a.63.63,0,0,1,.53-.33c.06,0,.13-.08.18-.13a.45.45,0,0,0,.06-.12.57.57,0,0,1,.66-.37,2.17,2.17,0,0,1,.74.11,1.11,1.11,0,0,1,.63.87v0c0,.29-.05.58.28.74l-.35.45,1,.57-.17-.35a4.7,4.7,0,0,1-.54-1.45,3.35,3.35,0,0,1,1.28-3.33,6.54,6.54,0,0,1,3.63-1.28,4.26,4.26,0,0,1,3.42,1.32l.09.09h0A3.55,3.55,0,0,1,19.56,3,3.52,3.52,0,0,1,22.37.76a4.31,4.31,0,0,1,2.9.49c.53.28,1,.62,1.54.94,0,0,0-.09,0-.14A1.35,1.35,0,0,1,27.47.69,2.92,2.92,0,0,1,31,.54c.15.09.31.16.47.24s.47.2.56.51.28.13.46,0c.12.19.22.38.35.55a2.15,2.15,0,0,0,.4.45,16.5,16.5,0,0,1,3.8,4.15,40.4,40.4,0,0,1,4.62,9.19,27,27,0,0,1,1.24,5,17,17,0,0,1,.11,3.63,34.26,34.26,0,0,1-.65,4.94c-.18.8-.42,1.59-.64,2.38a.25.25,0,0,0,.06.29.68.68,0,0,1,.13.73,1.64,1.64,0,0,1-1,1.14,2.64,2.64,0,0,0-1.39,1.58,3.28,3.28,0,0,0-.2,1.91c0,.21.06.43.08.65A1.09,1.09,0,0,1,39,39a.4.4,0,0,0-.19.3c-.27,1.38-.54,2.76-.82,4.14-.08.44-.18.89-.3,1.33s-.31,1.11-.5,1.65c-.24.69-.51,1.36-.77,2a.34.34,0,0,0,0,.2,1,1,0,0,1-.57,1.5,7.05,7.05,0,0,1-2.35.58,24.3,24.3,0,0,1-2.7.16c-1.08,0-2.16-.09-3.25-.18a15.18,15.18,0,0,1-3-.55h-.12l.32.67-.76.3Zm12.79-40L36.4,11a2.9,2.9,0,0,0-1.12-1.44A.52.52,0,0,0,35,9.49c-.21,0-.35.26-.3.57a3.9,3.9,0,0,0,1.1,2.1,2.56,2.56,0,0,0,.46.33c.19.1.3.06.38-.15A1.41,1.41,0,0,0,36.47,11.19Zm-28.18.73c.07.28.12.54.19.8a6.21,6.21,0,0,0,.59,1.86c.23.36.41.75.61,1.13.84,1.56,1.72,3.11,2.5,4.7,1.61,3.26,3.07,6.59,4.46,9.94a1,1,0,0,0,.07.15l.06,0-.46-2.32c.15,0,.29,0,.43,0a.19.19,0,0,1,.23.15l1.68,4.6c.06.15.11.31.16.46.2-.33.38-.66.6-1a2,2,0,0,1,.86-.69.31.31,0,0,1,.45.21,1.2,1.2,0,0,1,0,.5c-.1.47-.22.93-.33,1.4l.11.06L22,34.6a.72.72,0,0,1,.46.55c.09.39.24.77.31,1.16a2.06,2.06,0,0,0,.91,1.47,1.71,1.71,0,0,1,.2.18c.64.6,1.29,1.19,1.9,1.81a2.47,2.47,0,0,1,.67,1.09c0,.19.1.39-.06.54a.45.45,0,0,1-.52,0,10.75,10.75,0,0,1-1.52-.85c-.94-.71-1.83-1.48-2.74-2.23a.74.74,0,0,0-.46-.22c-.26,0-.51-.07-.76-.1l-1-.12a22.81,22.81,0,0,1,1,6.79h.05l.25-.34.35.47.06,0,.35-5.36c.27.11.51.22.76.31a.23.23,0,0,1,.16.24c0,.31,0,.62,0,.93,0,.72-.05,1.45-.08,2.17l-.06,1.29a3,3,0,0,1,.31-.11,4.61,4.61,0,0,1,.72-.15c.27,0,.39.13.32.38a2.35,2.35,0,0,1-.25.53c-.14.2-.3.37-.46.57l.3.22c.55.39.54.39.6,1.07a.91.91,0,0,1-.33.79l-.15.13c.15.3.3.58.42.87a.28.28,0,0,0,.37.18c.36-.09.74-.18,1.09-.3a1.71,1.71,0,0,0,.86-.68c-.11,0-.18.09-.24.08a1.77,1.77,0,0,1-.46-.15.31.31,0,0,1,0-.26c.3-.36.55-.78,1.05-.9a.51.51,0,0,0,.41-.49s0-.06,0-.08a.28.28,0,0,0-.09-.36L26,45.07c-.42-.4-.38-.68.16-.9a.48.48,0,0,1,.65.18l.14.19a16.86,16.86,0,0,0,.15-1.85c0-.66,0-1.31,0-2a4.06,4.06,0,0,1,1.23-2.79,7.44,7.44,0,0,1,1.77-1.29c.14-.07.19-.15.15-.3-.16-.6-.27-1.22-.46-1.82a64.69,64.69,0,0,0-2.48-6.32A83.42,83.42,0,0,0,23,19.3c-2.23-3.77-4.51-7.49-6.78-11.23-.31-.52-.64-1-1-1.55-.45.18-.9.31-1.31.52a3.82,3.82,0,0,1-1.61.19l-.11-.86,2.38-.88-.6-1a5,5,0,0,0-1.54.86A2.5,2.5,0,0,0,11.56,8a9.13,9.13,0,0,0,1.15,2.55l.2-.11c.26-.15.35-.12.57.09s.13.4.18.61,0,.43-.24.51c0,0,0,0,0,.05l.1.17,2.75,4a71.75,71.75,0,0,1,4.29,6.79,7.4,7.4,0,0,1,1,2.72l.16,1.17-.1-.12c-.53-.82-1.1-1.61-1.57-2.45A65.7,65.7,0,0,0,15.87,17c-.9-1.23-1.66-2.57-2.48-3.86-.23-.38-.48-.75-.73-1.14a.48.48,0,0,1-.63,0,6.06,6.06,0,0,1-.71-.65l.53-.35a6.07,6.07,0,0,0-1.66-1.12.23.23,0,0,0-.31,0L8.37,11.24c-.25.2-.52.39-.79.6l.18.3ZM30.63,36.34l6.18-2.71c-.1-.6-.19-1.2-.3-1.79-.57-3.18-1.25-6.33-2.11-9.44a34.83,34.83,0,0,0-3.53-8.54c-2.15-3.63-4.55-7.09-7-10.5a.32.32,0,0,0-.26-.1c-.5.08-1,.18-1.48.27l-.88.15v-1l1.66-.65-.43-.57a2.91,2.91,0,0,0-2,1.32A2.64,2.64,0,0,0,20,4.62a9.45,9.45,0,0,0,.89,2.29,2.05,2.05,0,0,1,.36-.24,1.59,1.59,0,0,1,.47-.14.24.24,0,0,1,.29.26c0,.23,0,.46,0,.69a.28.28,0,0,1-.12.2,5,5,0,0,1-.48.31c.43.65.84,1.3,1.27,1.94,1.07,1.58,2.2,3.13,3.22,4.74.73,1.15,1.33,2.39,2,3.59a15.12,15.12,0,0,1,.65,1.42.91.91,0,0,1-.15,1,1.35,1.35,0,0,1-1-.8c-.42-.77-.84-1.55-1.22-2.34a87.68,87.68,0,0,0-4.63-8c-.22-.37-.46-.73-.69-1.1l-.26.14-.57-1,.21-.18c-.34-.49-.66-1-1-1.47a6.57,6.57,0,0,0-.85-.9,3.62,3.62,0,0,0-3-.8c-.36,0-.72.13-1.12.21.19.29.35.53.49.78s.17.2.35.13c.57-.23,1.16-.44,1.74-.65.19-.07.54,0,.6.15a3,3,0,0,1,.2.49.15.15,0,0,1,0,.16,3,3,0,0,1-.52.32c-.46.2-.94.37-1.41.56l-.15.07.2.33c1.2,1.93,2.41,3.85,3.59,5.81,1.5,2.49,3,5,4.43,7.52a84.56,84.56,0,0,1,4.13,8.58A43.15,43.15,0,0,1,30.63,36.34ZM29.54,5.83a90.49,90.49,0,0,1,6.38,10.86,4.08,4.08,0,0,1-.28-.44c-1.5-2.78-3.19-5.43-4.95-8C30,7.11,29.15,6,28.37,5c-.21-.28-.5-.52-.71-.81a7.78,7.78,0,0,0-1.45-1.47,1.64,1.64,0,0,1-.32.14L25.21,3l-1.14.21.18.25c2.32,3.19,4.57,6.42,6.59,9.81a31.89,31.89,0,0,1,2.63,5.34,52.58,52.58,0,0,1,2,6.74c.52,2.36,1,4.74,1.46,7.11.07.36.12.72.19,1.09l.14,0L40.76,32a.39.39,0,0,0,.17-.19c.26-.89.55-1.76.75-2.66a31.42,31.42,0,0,0,.65-4.92,17.71,17.71,0,0,0-.28-4.54,31.26,31.26,0,0,0-2.4-7.18l-.49-1a4.59,4.59,0,0,1-.78-.14c-.34-.12-.66-.29-1-.43-.07,0-.17,0-.26,0s0,.21.07.26a.67.67,0,0,0,.32.15c.22.05.45.05.66.1s.2.16.29.24a2,2,0,0,1-.32.1,4.73,4.73,0,0,1-.53,0l0,.07.2.08c.28.1.56.18.84.29s.3.25.2.46a2.17,2.17,0,0,1,.32.27c.16.19.08.39-.17.41a2.11,2.11,0,0,1-.35,0h-.23l0,.08a1,1,0,0,0,.22.08,4.71,4.71,0,0,1,.52.09.85.85,0,0,1,.72.69s0,.06.07.1l.2.3h-.78a.55.55,0,0,0,.25.13c.25.06.51.1.76.17a.18.18,0,0,1,.07.35c-.13.08-.28.13-.42.2l-.26.14.37.15a.45.45,0,0,1,.11.13s-.12.06-.16,0a3.73,3.73,0,0,1-.7-.4.52.52,0,0,1-.23-.59.15.15,0,0,0-.05-.13.94.94,0,0,0-.57-.23,3.8,3.8,0,0,1-.82-.08.83.83,0,0,1-.42-.2.54.54,0,0,1-.1-.44c0-.16.23-.14.36-.09s.48.19.71.3a2.91,2.91,0,0,1,.3.17c-.11-.2-.25-.38-.09-.61a1,1,0,0,1-.23-.15c-.08-.12-.2-.27-.18-.4s.22-.18.37-.19h.37v-.05a2.08,2.08,0,0,0-.32-.12c-.15,0-.31,0-.46-.05s-.33-.1-.33-.38h.57c-.23-.11-.48-.19-.71-.29a.44.44,0,0,1-.3-.54c-.52-.3-.57-.54-.18-.94-.08-.17-.08-.17-.3-.17-.46,0-.7-.22-.68-.6-.25-.11-.46-.26-.39-.51-.16-.18-.36-.3-.41-.46A.61.61,0,0,0,35,8.44a.38.38,0,0,1,0-.65,1.26,1.26,0,0,1,1.09.36l.28.4c.1.13.07.2-.1.21h-.52l-.21,0v.07c.09.05.17.13.26.14a3.42,3.42,0,0,0,.71,0c.24,0,.33.1.4.31l-.89,0,0,.07a.58.58,0,0,0,.19.1c.24,0,.48,0,.72,0s.29.05.33.29l-.72,0c-.06,0-.11.08-.16.12s.11.13.16.12a5.32,5.32,0,0,0,.56-.06,1.45,1.45,0,0,1,.35,0c.06,0,.1.09.16.14a.75.75,0,0,1-.17.14.93.93,0,0,1-.24,0v.07l1.51.24A36.78,36.78,0,0,0,36.58,7a.1.1,0,0,0,0,.09.53.53,0,0,1-.69.67,1.2,1.2,0,0,1-.32-.16c-.13-.11-.24-.24-.31-.31a2.22,2.22,0,0,1-.27.19.44.44,0,0,0-.24.49,2.87,2.87,0,0,0,.73,1.55,7.35,7.35,0,0,1,1,1.32c.25.44.53.87.8,1.29.16.25.34.49.51.73,0,0,0,.09.08.14l0,.05a1.77,1.77,0,0,1-.17-.12c-.2-.25-.4-.51-.61-.76-.06-.09-.13-.17-.23-.3v.45c0,.22-.11.3-.32.3a1,1,0,0,1-.74-.37,6.92,6.92,0,0,1-.52-.69,3.86,3.86,0,0,1-.64-1.6c0-.3,0-.58.29-.72-.15-.34-.32-.67-.45-1a.76.76,0,0,1,.3-1.06A2.87,2.87,0,0,0,35,6.9a2.6,2.6,0,0,0-.53,0c-.22,0-.45,0-.67,0-.37,0-.5-.17-.52-.49s.08-.61.44-.68a2.53,2.53,0,0,1,2.13.4l.15.09a18.44,18.44,0,0,0-4.51-4.35c.05.08.12.15.18.23.42.54.83,1.08,1.24,1.63.07.09.13.21,0,.29s-.18,0-.25-.13L31.47,2.29a.85.85,0,0,0-1-.4c-.08,0-.18,0-.27,0a1.65,1.65,0,0,1-1.37-.31.6.6,0,0,1-.1-.73,5.12,5.12,0,0,0-.78.38.84.84,0,0,0-.39,1,9.07,9.07,0,0,0,1,2.24,2.16,2.16,0,0,0,.24.31l1-.52a.44.44,0,0,1,.59.15c.14.23.25.48.38.74Zm-21,11.85h0a1.55,1.55,0,0,0-.07-.23,40.44,40.44,0,0,1-1.35-4.6c-.08-.38-.08-.38.26-.57l0,0L7.34,12l-.13.1a34.85,34.85,0,0,0-3.66,3.63.26.26,0,0,0-.06.21c0,.41.1.83.17,1.24a.51.51,0,0,0,.16.25.9.9,0,0,1,.31.71,1.83,1.83,0,0,0,.11.61c.54,1.42,1.09,2.84,1.64,4.26l.21.57-.34.14c0,.08,0,.15.07.22.9,2.2,1.83,4.39,2.7,6.6a7.68,7.68,0,0,0,1.21,1.69c.06-.07.14-.12.13-.16,0-.23.14-.26.28-.3a1,1,0,0,1,1,.49l.54,1.38.37,1c.11,0,.22-.1.29-.08a.63.63,0,0,1,.42.47.42.42,0,0,1-.19.5c-.13.08-.13.18-.07.32.28.69.56,1.39.83,2.1.15.4.15.4.58.41a.61.61,0,0,1,.6.44.53.53,0,0,1-.3.61l-.27.15c.36.62.7,1.22,1.06,1.82a.21.21,0,0,0,.16.1.83.83,0,0,1,.68,1.08.19.19,0,0,0,0,.16c.2.28.4.56.61.83A1,1,0,0,0,17,44a1,1,0,0,1,.33.23.37.37,0,0,1,.14.43.25.25,0,0,0,.05.16,16.34,16.34,0,0,0,2.36,2.27l.2.1c0-.67-.08-1.29-.12-1.9,0,0,0,0,0-.08a1.74,1.74,0,0,0,.05-.39c0-.69-.08-1.39-.11-2.09a16.24,16.24,0,0,0-.52-3.67c-.16-.53-.16-1.14-.68-1.51-.06,0-.1-.11-.17-.14a.44.44,0,0,1-.3-.59,3.23,3.23,0,0,0-.09-1.74q-1.66-4.55-3.66-9c-.88-2-1.78-3.94-2.73-5.88-.77-1.55-1.63-3.06-2.44-4.59-.08-.13-.15-.27-.23-.41l-.06,0c.32,1.2.63,2.41,1,3.6a5.35,5.35,0,0,0,.52.92l.3-.29.54.49c.28.25.3.32.15.67,0,.1-.15.19-.2.29s-.18.32-.15.45a1.09,1.09,0,0,1,0,.8c.32.24.64.46.93.71a1,1,0,0,1,.27.42c.18.52.36,1.05.5,1.59a4.92,4.92,0,0,0,.94,2,3.35,3.35,0,0,1,.42.59c.33.59.23,1-.4,1.44l-1.11-1.25-.06,0c.11.25.21.5.34.74a4.73,4.73,0,0,1,.49,2.81.29.29,0,0,1-.17.26l-.33.16c-.14.07-.21,0-.24-.14-.13-.64-.25-1.27-.4-1.9A27,27,0,0,0,11,26.1c-.3-.74-.61-1.47-.91-2.2-.28.21-.36.23-.54.07A7.53,7.53,0,0,1,9,23.4l.43-.76A1.54,1.54,0,0,1,9.22,21a.86.86,0,0,0-.16-1c-.29-.34-.53-.73-.79-1.09a4.2,4.2,0,0,1-.36-.5c-.35-.72-.7-1.45-1-2.2a3.68,3.68,0,0,1-.23-1.55l.79-.11Zm18.89,31.1h3.45a35.3,35.3,0,0,0,.52-8.27l-2.49.18c-.05.91-.1,1.8-.15,2.7.56.07.77.38.63.94A4.47,4.47,0,0,1,28.64,46l-.21.26a3.58,3.58,0,0,1,.27.29.6.6,0,0,1-.27,1l-.32.1a.3.3,0,0,0-.15.12C27.79,48.06,27.64,48.39,27.46,48.78ZM41.19,32.62l-.16.06c-1.5.62-3,1.23-4.5,1.88q-2.82,1.21-5.61,2.5a6.16,6.16,0,0,0-2.28,1.67,3.5,3.5,0,0,0-.79,2.32c0,.92,0,1.84-.05,2.76,0,.48-.1,1-.14,1.43a.56.56,0,0,0,0,.17l.05,0a28.75,28.75,0,0,0,.49-4.63,2.48,2.48,0,0,1,.38-1.36,5.29,5.29,0,0,1,2-1.69c1.43-.71,2.87-1.38,4.32-2,1.83-.82,3.68-1.61,5.51-2.41A1.35,1.35,0,0,0,41.19,32.62ZM35.75,49.05h-.07a13.15,13.15,0,0,1-3.06.45c-1,0-2,0-3,0s-1.74,0-2.6-.06a1.35,1.35,0,0,0-.87.34s0,0,.06,0c.67.09,1.34.22,2,.26,1,.06,2,.08,3,.1a13.87,13.87,0,0,0,3.21-.31,8.7,8.7,0,0,0,1.19-.39C35.82,49.4,35.84,49.29,35.75,49.05Zm-13.53.2a13.54,13.54,0,0,1-5.24-4l-.77.36a13.19,13.19,0,0,0,3.07,2.61A6,6,0,0,0,22.22,49.25ZM3.52,14a25.71,25.71,0,0,1,3.12-3.14l-.6-1A6,6,0,0,0,3.52,14ZM34.36,44.25c.42-.32.48-.38.56-.65.14-.43-.16-.9-.55-.82a1.48,1.48,0,0,0-.7.34,3.43,3.43,0,0,0-.88,2.33.43.43,0,0,0,.38.4.31.31,0,0,0,.36-.22c.14-.32.24-.64.36-1,0-.1.07-.2.1-.3h.08l.12.48a.67.67,0,0,0,.87.61l.72-.11a.55.55,0,0,0,.41.63l.29.07,0-.07a2.52,2.52,0,0,1-.29-.12c-.33-.17-.42-.43-.2-.69a4.25,4.25,0,0,1,.6-.51,2.22,2.22,0,0,1,.31-.14l0-.05a6.11,6.11,0,0,0-.58.27,2.26,2.26,0,0,1-1.39.3.46.46,0,0,1-.44-.43C34.45,44.5,34.4,44.39,34.36,44.25Zm3.86-6.17a5.8,5.8,0,0,1-.66.33,20.66,20.66,0,0,1-2,.49c-.9.16-1.81.27-2.72.36s-2.1.2-3.15.29c-.28,0-.39.09-.48.39h.25c.72,0,1.45-.09,2.17-.18,1.12-.13,2.25-.27,3.37-.46s2-.38,2.93-.59A.43.43,0,0,0,38.22,38.08Zm-1.93,6.08-.09,0,.25-.89c-.18,0-.29,0-.34.21s-.15.49-.24.73-.14.15-.2.22l-.07,0a2,2,0,0,1,0-.24l.15-.54a.2.2,0,0,0,0-.15s-.08,0-.11,0l-.38.13a.33.33,0,0,0-.2.11,1.54,1.54,0,0,0-.35.91.36.36,0,0,0,.16.28.64.64,0,0,0,.37-.08s.07-.08.11-.13c.31.21.44-.06.6-.23.23.15.3.13.56-.16a.32.32,0,0,0,.52-.14,1.82,1.82,0,0,0,.07-.25c.07-.32.14-.64.23-1-.2.12-.19.28-.21.43a6,6,0,0,1-.13.61c0,.06-.11.08-.17.12s-.06-.14,0-.19c0-.25.13-.5.2-.76-.18,0-.28.05-.33.22a5.3,5.3,0,0,1-.23.67A1.27,1.27,0,0,1,36.29,44.16ZM37.7,41l-5.59,1.74V43l.2,0,5.15-1.58A.29.29,0,0,0,37.7,41ZM35.27,6.87a.76.76,0,0,0,.75.51c.28,0,.36-.15.26-.41a1.26,1.26,0,0,0-.52-.62A2.42,2.42,0,0,0,34,6a.89.89,0,0,0-.35.14.21.21,0,0,0,0,.38,1.72,1.72,0,0,0,.46,0c.32,0,.64-.07,1-.06a.86.86,0,0,1,.83.52ZM22.49,48.57l-.2-.52A.2.2,0,0,0,22.2,48,3.32,3.32,0,0,1,21,47.3c-.25-.19-.24-.24.05-.39.06,0,.15-.11.15-.16s-.09-.12-.15-.17l-.53-.44a1.62,1.62,0,0,1-.18-.19h-.06c0,.42,0,.83,0,1.24,0,.15,0,.24.15.3l1.69.91ZM36.17,47l-4.82,1.14,0,.2h.18a40.13,40.13,0,0,0,4.34-1A.39.39,0,0,0,36.17,47ZM16,44.12q-.42-.6-.84-1.17a.22.22,0,0,0-.13-.09l-.74.14c.3.46.57.88.86,1.29a.24.24,0,0,0,.23.07A5.27,5.27,0,0,0,16,44.12ZM6.87,10.69l1.21-.93-.47-.34s-.06-.05-.09,0a2.55,2.55,0,0,0-1.24.39ZM14.4,41.78c-.21-.35-.4-.69-.6-1a.18.18,0,0,0-.14-.09,3.67,3.67,0,0,0-.42.07l.31.77C13.79,42.06,13.82,42.07,14.4,41.78ZM22.81,1.43c.27.55.37.6.93.5l.19,0,.72-.11A3.28,3.28,0,0,0,22.81,1.43Zm4.5,45.68a1.54,1.54,0,0,0-.28.35,3.59,3.59,0,0,1-.83,1.19,9.64,9.64,0,0,1-.91.61A2.44,2.44,0,0,0,27.31,47.11ZM11.07,36.26c.34.66.68,1.31,1,2,0,.05.11.07.19.12a9.21,9.21,0,0,0-.82-2C11.36,36.18,11.24,36.17,11.07,36.26ZM9.6,34c.23.35.46.67.65,1s.28.2.51.15l-.84-1.36ZM8.48,31.89a1.25,1.25,0,0,0,.36,1l.29-.21Zm28.39,12.9,0,0a1.31,1.31,0,0,0-.61.68c-.07.28,0,.39.26.33a.87.87,0,0,1,0-.28,4.23,4.23,0,0,1,.24-.4A2.85,2.85,0,0,0,36.87,44.79Zm2.48-30.54.17-.12c-.05-.06-.08-.14-.13-.16a1.91,1.91,0,0,0-.47-.12c-.05,0-.12,0-.18.07s.06.15.12.17A4,4,0,0,0,39.35,14.25ZM35.43,8.08l-.22.13c.07.06.14.16.22.19a1.33,1.33,0,0,0,.4,0c.05,0,.1,0,.16-.07s-.06-.14-.11-.16A3,3,0,0,0,35.43,8.08Zm-17,26.2-.58-1.08,0,0,.43,1.16ZM2.81,16.58l-.63.74c.17-.07.32-.18.48-.26S2.91,16.81,2.81,16.58ZM38,10.88a1.17,1.17,0,0,0,1,.24Zm2,4.26,0-.06a2.46,2.46,0,0,0-.34-.09c-.07,0-.14.06-.21.09s.11.15.16.15A3,3,0,0,0,39.92,15.14Zm-2-.93L37.36,14C37.41,14.24,37.62,14.3,38,14.21Z"></path><path d="M36.47,11.19a1.91,1.91,0,0,1,.06.33.22.22,0,0,1-.07.17.17.17,0,0,1-.18,0,5.86,5.86,0,0,1-.41-.43,2,2,0,0,0,0,.41,2,2,0,0,0,.1.41c-.07,0-.11,0-.12-.06a4.44,4.44,0,0,1-.22-.61.46.46,0,0,1,.07-.27c.09-.14.06-.23-.1-.28l-.26-.11c-.32-.09-.43-.37-.53-.64s.11-.34.34-.27a1.91,1.91,0,0,1,.87.64,6,6,0,0,1,.42.57Zm-.6-.27,0,0c.11.12.2.25.31.36a.31.31,0,0,0,.17,0c0-.06,0-.13,0-.17a1.81,1.81,0,0,0-1.22-1.08c-.06,0-.13,0-.2,0s0,.18.07.2a1.86,1.86,0,0,0,.46.19,1.08,1.08,0,0,1,.69.48Z"></path><path d="M39.21,11.75c-.12.09-.22.19-.25.17a.64.64,0,0,1-.22-.24s.13-.16.17-.15A1.38,1.38,0,0,1,39.21,11.75Z"></path><path d="M38.94,14.94c-.08.06-.16.13-.17.12a.36.36,0,0,1-.12-.15s.07-.09.1-.08S38.85,14.88,38.94,14.94Z"></path><path d="M34.05,44.06l.25-.67a.4.4,0,0,0-.35.28c-.13.41-.24.82-.36,1.22,0,.14-.07.29-.12.42s-.13.27-.3.21-.14-.2-.1-.34.12-.47.19-.71a2.92,2.92,0,0,1,.5-1.14,1.56,1.56,0,0,1,.5-.33c.15-.07.3,0,.34.22A.78.78,0,0,1,34.05,44.06Z"></path><path d="M35,44.45c.08-.2.16-.4.25-.58s.1,0,.15-.07.06.1,0,.14a4.3,4.3,0,0,1-.2.57s-.1.07-.15.07S35,44.5,35,44.45Z"></path></g></g></symbol><use href="#09febc61-dcd0-42a4-a083-618850e01d19"></use></svg>